<?xml version="1.0" encoding="UTF-8"?>
<svg width="175mm" height="40mm" version="1.1" viewBox="0 0 175 40" xmlns="http://www.w3.org/2000/svg" xmlns:cc="http://creativecommons.org/ns#" xmlns:dc="http://purl.org/dc/elements/1.1/" xmlns:rdf="http://www.w3.org/1999/02/22-rdf-syntax-ns#">
 <metadata>
  <rdf:RDF>
   <cc:Work rdf:about="">
    <dc:format>image/svg+xml</dc:format>
    <dc:type rdf:resource="http://purl.org/dc/dcmitype/StillImage"/>
   </cc:Work>
  </rdf:RDF>
 </metadata>
 <g transform="translate(.0064617 -229.61)">
  <g fill="#858585" stroke-width=".24049" aria-label="array2D ">
   <path d="m22.09 262.81q-0.45419 0-0.62935 0.10387-0.17516 0.10387-0.17516 0.35439 0 0.1996 0.13035 0.31773 0.13239 0.11609 0.35846 0.11609 0.31162 0 0.499-0.21996 0.18942-0.22201 0.18942-0.58862v-0.0835zm0.74748-0.15479v1.3015h-0.37476v-0.34624q-0.12831 0.20774-0.31976 0.30754-0.19145 0.0978-0.46844 0.0978-0.35032 0-0.55806-0.19553-0.20571-0.19756-0.20571-0.52751 0-0.38494 0.25663-0.58046 0.25866-0.19553 0.76988-0.19553h0.52547v-0.0367q0-0.25866-0.17108-0.3992-0.16905-0.14257-0.47659-0.14257-0.19552 0-0.38087 0.0469-0.18534 0.0468-0.35643 0.14053v-0.34624q0.20571-0.0794 0.3992-0.11813 0.19349-0.0407 0.37679-0.0407 0.49492 0 0.73933 0.25662 0.24441 0.25663 0.24441 0.77803z"/>
   <path d="m24.931 262.03q-0.06314-0.0367-0.1385-0.053-0.07332-0.0183-0.16294-0.0183-0.31773 0-0.48881 0.20774-0.16905 0.20571-0.16905 0.59269v1.2017h-0.37679v-2.2811h0.37679v0.35439q0.11813-0.20775 0.30754-0.30755 0.18942-0.10183 0.4603-0.10183 0.0387 0 0.08554 6e-3 0.04684 4e-3 0.10387 0.0143z"/>
   <path d="m26.573 262.03q-0.06314-0.0367-0.1385-0.053-0.07332-0.0183-0.16294-0.0183-0.31773 0-0.48881 0.20774-0.16905 0.20571-0.16905 0.59269v1.2017h-0.37679v-2.2811h0.37679v0.35439q0.11813-0.20775 0.30754-0.30755 0.18942-0.10183 0.4603-0.10183 0.0387 0 0.08554 6e-3 0.04684 4e-3 0.10387 0.0143z"/>
   <path d="m28.002 262.81q-0.45419 0-0.62935 0.10387-0.17516 0.10387-0.17516 0.35439 0 0.1996 0.13035 0.31773 0.13239 0.11609 0.35846 0.11609 0.31162 0 0.499-0.21996 0.18942-0.22201 0.18942-0.58862v-0.0835zm0.74748-0.15479v1.3015h-0.37476v-0.34624q-0.12831 0.20774-0.31976 0.30754-0.19145 0.0978-0.46844 0.0978-0.35032 0-0.55806-0.19553-0.20571-0.19756-0.20571-0.52751 0-0.38494 0.25663-0.58046 0.25866-0.19553 0.76988-0.19553h0.52547v-0.0367q0-0.25866-0.17108-0.3992-0.16905-0.14257-0.47659-0.14257-0.19552 0-0.38087 0.0469-0.18534 0.0468-0.35643 0.14053v-0.34624q0.20571-0.0794 0.3992-0.11813 0.19349-0.0407 0.37679-0.0407 0.49492 0 0.73933 0.25662 0.24441 0.25663 0.24441 0.77803z"/>
   <path d="m30.471 264.17q-0.15886 0.40734-0.30958 0.53158t-0.40327 0.12424h-0.2994v-0.31365h0.21997q0.15479 0 0.24033-0.0733 0.08554-0.0733 0.18941-0.34625l0.06721-0.17108-0.92263-2.2445h0.39716l0.71285 1.7842 0.71285-1.7842h0.39716z"/>
   <path d="m32.398 263.61h1.4359v0.34624h-1.9308v-0.34624q0.23422-0.24237 0.63749-0.64971 0.40531-0.40938 0.50918-0.52751 0.19756-0.22201 0.27496-0.37476 0.07943-0.15479 0.07943-0.30347 0-0.24237-0.17108-0.39512-0.16905-0.15276-0.44197-0.15276-0.19349 0-0.40938 0.0672-0.21386 0.0672-0.45826 0.20367v-0.41549q0.24848-0.0998 0.46437-0.15071 0.21589-0.0509 0.39512-0.0509 0.47252 0 0.75359 0.23626t0.28107 0.63138q0 0.18738-0.07129 0.35643-0.06925 0.16701-0.25459 0.39512-0.05092 0.0591-0.32384 0.34217-0.27292 0.28107-0.76988 0.78821z"/>
   <path d="m35.072 261.26v2.3646h0.49696q0.62935 0 0.9206-0.28514 0.29329-0.28515 0.29329-0.90023 0-0.61102-0.29329-0.89412-0.29125-0.28514-0.9206-0.28514zm-0.41142-0.3381h0.84524q0.88394 0 1.2974 0.36865 0.41345 0.36661 0.41345 1.1487 0 0.78617-0.41549 1.1548-0.41549 0.36865-1.2954 0.36865h-0.84524z"/>
  </g>
  <g fill="#858585" stroke-width=".24049" aria-label="array1D, row major layout">
   <path d="m96.153 262.81q-0.45419 0-0.62935 0.10387t-0.17516 0.35439q0 0.1996 0.13035 0.31773 0.13239 0.11609 0.35846 0.11609 0.31162 0 0.499-0.21996 0.18942-0.22201 0.18942-0.58862v-0.0835zm0.74748-0.15479v1.3015h-0.37476v-0.34624q-0.12831 0.20774-0.31976 0.30754-0.19145 0.0978-0.46844 0.0978-0.35032 0-0.55806-0.19553-0.20571-0.19756-0.20571-0.52751 0-0.38494 0.25663-0.58046 0.25866-0.19553 0.76988-0.19553h0.52547v-0.0367q0-0.25866-0.17108-0.3992-0.16905-0.14257-0.47659-0.14257-0.19552 0-0.38087 0.0469-0.18534 0.0468-0.35642 0.14053v-0.34624q0.20571-0.0794 0.3992-0.11813 0.19349-0.0407 0.37679-0.0407 0.49492 0 0.73933 0.25662 0.24441 0.25663 0.24441 0.77803z"/>
   <path d="m98.994 262.03q-0.06314-0.0367-0.1385-0.053-0.07332-0.0183-0.16294-0.0183-0.31773 0-0.48881 0.20774-0.16905 0.20571-0.16905 0.59269v1.2017h-0.37679v-2.2811h0.37679v0.35439q0.11813-0.20775 0.30754-0.30755 0.18942-0.10183 0.4603-0.10183 0.0387 0 0.08554 6e-3 0.04685 4e-3 0.10387 0.0143z"/>
   <path d="m100.64 262.03q-0.0631-0.0367-0.1385-0.053-0.0733-0.0183-0.16294-0.0183-0.31772 0-0.48881 0.20774-0.16905 0.20571-0.16905 0.59269v1.2017h-0.37679v-2.2811h0.37679v0.35439q0.11813-0.20775 0.30754-0.30755 0.18941-0.10183 0.4603-0.10183 0.0387 0 0.0855 6e-3 0.0468 4e-3 0.10387 0.0143z"/>
   <path d="m102.07 262.81q-0.45418 0-0.62934 0.10387t-0.17516 0.35439q0 0.1996 0.13035 0.31773 0.13239 0.11609 0.35846 0.11609 0.31162 0 0.499-0.21996 0.18941-0.22201 0.18941-0.58862v-0.0835zm0.74748-0.15479v1.3015h-0.37476v-0.34624q-0.12831 0.20774-0.31976 0.30754-0.19145 0.0978-0.46845 0.0978-0.35031 0-0.55806-0.19553-0.20571-0.19756-0.20571-0.52751 0-0.38494 0.25663-0.58046 0.25866-0.19553 0.76988-0.19553h0.52547v-0.0367q0-0.25866-0.17108-0.3992-0.16905-0.14257-0.47659-0.14257-0.19553 0-0.38087 0.0469-0.18534 0.0468-0.35643 0.14053v-0.34624q0.20571-0.0794 0.3992-0.11813 0.19349-0.0407 0.37679-0.0407 0.49493 0 0.73933 0.25662 0.24441 0.25663 0.24441 0.77803z"/>
   <path d="m104.53 264.17q-0.15887 0.40734-0.30959 0.53158-0.15071 0.12424-0.40327 0.12424h-0.29939v-0.31365h0.21996q0.15479 0 0.24033-0.0733 0.0855-0.0733 0.18942-0.34625l0.0672-0.17108-0.92263-2.2445h0.39716l0.71285 1.7842 0.71285-1.7842h0.39716z"/>
   <path d="m106.18 263.61h0.67211v-2.3198l-0.73118 0.14664v-0.37476l0.72711-0.14664h0.41142v2.6946h0.67212v0.34624h-1.7516z"/>
   <path d="m109.13 261.26v2.3646h0.49696q0.62935 0 0.9206-0.28514 0.29329-0.28515 0.29329-0.90023 0-0.61102-0.29329-0.89412-0.29125-0.28514-0.9206-0.28514zm-0.41141-0.3381h0.84523q0.88394 0 1.2974 0.36865 0.41346 0.36661 0.41346 1.1487 0 0.78617-0.41549 1.1548-0.41549 0.36865-1.2954 0.36865h-0.84523z"/>
   <path d="m112.01 263.44h0.42975v0.35032l-0.33402 0.65175h-0.26274l0.16701-0.65175z"/>
   <path d="m115.89 262.03q-0.0631-0.0367-0.13849-0.053-0.0733-0.0183-0.16294-0.0183-0.31773 0-0.48881 0.20774-0.16905 0.20571-0.16905 0.59269v1.2017h-0.37679v-2.2811h0.37679v0.35439q0.11813-0.20775 0.30754-0.30755 0.18942-0.10183 0.4603-0.10183 0.0387 0 0.0855 6e-3 0.0469 4e-3 0.10388 0.0143z"/>
   <path d="m117.08 261.94q-0.30143 0-0.47659 0.23626-0.17516 0.23423-0.17516 0.64361t0.17313 0.64564q0.17515 0.23422 0.47862 0.23422 0.2994 0 0.47456-0.23626t0.17516-0.6436q0-0.40531-0.17516-0.64157-0.17516-0.2383-0.47456-0.2383zm0-0.31772q0.48882 0 0.76785 0.31772 0.27903 0.31773 0.27903 0.87987 0 0.56009-0.27903 0.87986-0.27903 0.31773-0.76785 0.31773-0.49085 0-0.76988-0.31773-0.27699-0.31977-0.27699-0.87986 0-0.56214 0.27699-0.87987 0.27903-0.31772 0.76988-0.31772z"/>
   <path d="m118.53 261.68h0.37475l0.46845 1.7801 0.46641-1.7801h0.44196l0.46845 1.7801 0.46641-1.7801h0.37475l-0.59675 2.2811h-0.44197l-0.49085-1.8697-0.49289 1.8697h-0.44196z"/>
   <path d="m125.26 262.11q0.14053-0.25255 0.33606-0.37272 0.19552-0.12016 0.4603-0.12016 0.35642 0 0.54991 0.25051 0.19349 0.24848 0.19349 0.70878v1.3768h-0.37679v-1.3646q0-0.32791-0.1161-0.48678-0.11609-0.15886-0.35439-0.15886-0.29125 0-0.46029 0.19349-0.16905 0.19349-0.16905 0.52751v1.2892h-0.37679v-1.3646q0-0.32995-0.1161-0.48678-0.11609-0.15886-0.35846-0.15886-0.28718 0-0.45622 0.19553-0.16905 0.19348-0.16905 0.52547v1.2892h-0.3768v-2.2811h0.3768v0.35439q0.12831-0.20979 0.30754-0.30959t0.42568-0.0998q0.24848 0 0.4216 0.12627 0.17515 0.12628 0.25866 0.36661z"/>
   <path d="m128.58 262.81q-0.45418 0-0.62934 0.10387t-0.17516 0.35439q0 0.1996 0.13035 0.31773 0.13239 0.11609 0.35846 0.11609 0.31162 0 0.499-0.21996 0.18941-0.22201 0.18941-0.58862v-0.0835zm0.74748-0.15479v1.3015h-0.37476v-0.34624q-0.12831 0.20774-0.31976 0.30754-0.19145 0.0978-0.46845 0.0978-0.35031 0-0.55806-0.19553-0.20571-0.19756-0.20571-0.52751 0-0.38494 0.25663-0.58046 0.25866-0.19553 0.76988-0.19553h0.52547v-0.0367q0-0.25866-0.17108-0.3992-0.16905-0.14257-0.47659-0.14257-0.19553 0-0.38087 0.0469-0.18534 0.0468-0.35642 0.14053v-0.34624q0.2057-0.0794 0.39919-0.11813 0.19349-0.0407 0.3768-0.0407 0.49492 0 0.73932 0.25662 0.24441 0.25663 0.24441 0.77803z"/>
   <path d="m130.1 261.68h0.37475v2.3219q0 0.43585-0.16701 0.63138-0.16497 0.19552-0.53362 0.19552h-0.14257v-0.31773h0.0998q0.21385 0 0.29125-0.0998 0.0774-0.0978 0.0774-0.40938zm0-0.88801h0.37475v0.47455h-0.37475z"/>
   <path d="m132.15 261.94q-0.30143 0-0.47659 0.23626-0.17516 0.23423-0.17516 0.64361t0.17313 0.64564q0.17515 0.23422 0.47862 0.23422 0.2994 0 0.47456-0.23626t0.17516-0.6436q0-0.40531-0.17516-0.64157-0.17516-0.2383-0.47456-0.2383zm0-0.31772q0.48882 0 0.76785 0.31772 0.27903 0.31773 0.27903 0.87987 0 0.56009-0.27903 0.87986-0.27903 0.31773-0.76785 0.31773-0.49084 0-0.76988-0.31773-0.27699-0.31977-0.27699-0.87986 0-0.56214 0.27699-0.87987 0.27904-0.31772 0.76988-0.31772z"/>
   <path d="m135.14 262.03q-0.0631-0.0367-0.1385-0.053-0.0733-0.0183-0.16294-0.0183-0.31772 0-0.48881 0.20774-0.16905 0.20571-0.16905 0.59269v1.2017h-0.37679v-2.2811h0.37679v0.35439q0.11813-0.20775 0.30755-0.30755 0.18941-0.10183 0.4603-0.10183 0.0387 0 0.0855 6e-3 0.0468 4e-3 0.10387 0.0143z"/>
   <path d="m136.85 260.79h0.37475v3.1691h-0.37475z"/>
   <path d="m139.05 262.81q-0.45419 0-0.62935 0.10387t-0.17516 0.35439q0 0.1996 0.13035 0.31773 0.13239 0.11609 0.35847 0.11609 0.31162 0 0.49899-0.21996 0.18942-0.22201 0.18942-0.58862v-0.0835zm0.74747-0.15479v1.3015h-0.37475v-0.34624q-0.12832 0.20774-0.31977 0.30754-0.19145 0.0978-0.46844 0.0978-0.35032 0-0.55806-0.19553-0.20571-0.19756-0.20571-0.52751 0-0.38494 0.25663-0.58046 0.25866-0.19553 0.76987-0.19553h0.52548v-0.0367q0-0.25866-0.17109-0.3992-0.16904-0.14257-0.47659-0.14257-0.19552 0-0.38086 0.0469-0.18535 0.0468-0.35643 0.14053v-0.34624q0.20571-0.0794 0.3992-0.11813 0.19348-0.0407 0.37679-0.0407 0.49492 0 0.73933 0.25662 0.2444 0.25663 0.2444 0.77803z"/>
   <path d="m141.52 264.17q-0.15886 0.40734-0.30958 0.53158-0.15071 0.12424-0.40327 0.12424h-0.2994v-0.31365h0.21997q0.15479 0 0.24033-0.0733 0.0855-0.0733 0.18942-0.34625l0.0672-0.17108-0.92263-2.2445h0.39716l0.71285 1.7842 0.71285-1.7842h0.39716z"/>
   <path d="m143.92 261.94q-0.30143 0-0.47659 0.23626-0.17516 0.23423-0.17516 0.64361t0.17312 0.64564q0.17516 0.23422 0.47863 0.23422 0.2994 0 0.47456-0.23626 0.17515-0.23626 0.17515-0.6436 0-0.40531-0.17515-0.64157-0.17516-0.2383-0.47456-0.2383zm0-0.31772q0.48881 0 0.76784 0.31772 0.27903 0.31773 0.27903 0.87987 0 0.56009-0.27903 0.87986-0.27903 0.31773-0.76784 0.31773-0.49085 0-0.76988-0.31773-0.27699-0.31977-0.27699-0.87986 0-0.56214 0.27699-0.87987 0.27903-0.31772 0.76988-0.31772z"/>
   <path d="m145.55 263.06v-1.3809h0.37476v1.3666q0 0.32384 0.12628 0.48678 0.12627 0.1609 0.37883 0.1609 0.30347 0 0.47862-0.19349 0.1772-0.19349 0.1772-0.52751v-1.2933h0.37475v2.2811h-0.37475v-0.35031q-0.13646 0.20774-0.31773 0.30958-0.17923 0.0998-0.41753 0.0998-0.39308 0-0.59676-0.24441-0.20367-0.24441-0.20367-0.71489z"/>
   <path d="m148.6 261.03v0.64768h0.77192v0.29125h-0.77192v1.2383q0 0.27903 0.0754 0.35846 0.0774 0.0794 0.31162 0.0794h0.38494v0.31365h-0.38494q-0.43382 0-0.59879-0.1609-0.16498-0.16294-0.16498-0.59065v-1.2383h-0.27496v-0.29125h0.27496v-0.64768z"/>
  </g>
  <g transform="matrix(1.8917 0 0 1.8917 -40.77 -176.89)" fill="none" stroke="#858585" stroke-width=".16441">
   <path d="m53.91 232.61h4.2137v0.33094l0.86957-0.50263-0.86957-0.50267v0.33094h-4.2137z" color="#000000" color-rendering="auto" dominant-baseline="auto" fill="none" image-rendering="auto" shape-rendering="auto" solid-color="#000000" stroke="#858585" stroke-width=".16441" style="font-feature-settings:normal;font-variant-alternates:normal;font-variant-caps:normal;font-variant-ligatures:normal;font-variant-numeric:normal;font-variant-position:normal;isolation:auto;mix-blend-mode:normal;shape-padding:0;text-decoration-color:#000000;text-decoration-line:none;text-decoration-style:solid;text-indent:0;text-orientation:mixed;text-transform:none;white-space:normal"/>
  </g>
  <g stroke-width=".15573">
   <g fill="#d80000" aria-label="e00 e01 e03">
    <path d="m80.098 245.24v0.20189h-1.8978q0.02692 0.42621 0.25573 0.65053 0.23105 0.22208 0.64156 0.22208 0.23778 0 0.45986-0.0583 0.22432-0.0583 0.44416-0.17497v0.39032q-0.22208 0.0942-0.45537 0.14356-0.2333 0.0494-0.47332 0.0494-0.60118 0-0.95337-0.34994-0.34994-0.34994-0.34994-0.94664 0-0.61688 0.332-0.97804 0.33424-0.3634 0.89953-0.3634 0.50697 0 0.80083 0.32751 0.2961 0.32526 0.2961 0.88607zm-0.41275-0.12113q-0.0045-0.33873-0.19067-0.54062-0.18394-0.20189-0.48902-0.20189-0.34546 0-0.55408 0.19516-0.20638 0.19516-0.23778 0.54959z"/>
    <path d="m81.802 243.55q-0.34994 0-0.52716 0.34546-0.17497 0.34321-0.17497 1.0341 0 0.68867 0.17497 1.0341 0.17721 0.34321 0.52716 0.34321 0.35218 0 0.52716-0.34321 0.17722-0.34546 0.17722-1.0341 0-0.69091-0.17722-1.0341-0.17497-0.34546-0.52716-0.34546zm0-0.35891q0.56305 0 0.85915 0.4464 0.29835 0.44415 0.29835 1.2921 0 0.8457-0.29835 1.2921-0.2961 0.44415-0.85915 0.44415t-0.8614-0.44415q-0.2961-0.4464-0.2961-1.2921 0-0.84794 0.2961-1.2921 0.29835-0.4464 0.8614-0.4464z"/>
    <path d="m84.725 243.55q-0.34994 0-0.52716 0.34546-0.17497 0.34321-0.17497 1.0341 0 0.68867 0.17497 1.0341 0.17721 0.34321 0.52716 0.34321 0.35218 0 0.52716-0.34321 0.17722-0.34546 0.17722-1.0341 0-0.69091-0.17722-1.0341-0.17497-0.34546-0.52716-0.34546zm0-0.35891q0.56305 0 0.85915 0.4464 0.29835 0.44415 0.29835 1.2921 0 0.8457-0.29835 1.2921-0.2961 0.44415-0.85915 0.44415t-0.8614-0.44415q-0.2961-0.4464-0.2961-1.2921 0-0.84794 0.2961-1.2921 0.29835-0.4464 0.8614-0.4464z"/>
    <path d="m90.23 245.24v0.20189h-1.8978q0.02692 0.42621 0.25573 0.65053 0.23105 0.22208 0.64156 0.22208 0.23778 0 0.45986-0.0583 0.22432-0.0583 0.44416-0.17497v0.39032q-0.22208 0.0942-0.45537 0.14356-0.2333 0.0494-0.47332 0.0494-0.60118 0-0.95337-0.34994-0.34994-0.34994-0.34994-0.94664 0-0.61688 0.332-0.97804 0.33424-0.3634 0.89953-0.3634 0.50697 0 0.80083 0.32751 0.2961 0.32526 0.2961 0.88607zm-0.41275-0.12113q-0.0045-0.33873-0.19067-0.54062-0.18394-0.20189-0.48902-0.20189-0.34546 0-0.55408 0.19516-0.20638 0.19516-0.23778 0.54959z"/>
    <path d="m91.935 243.55q-0.34994 0-0.52716 0.34546-0.17497 0.34321-0.17497 1.0341 0 0.68867 0.17497 1.0341 0.17722 0.34321 0.52716 0.34321 0.35218 0 0.52716-0.34321 0.17721-0.34546 0.17721-1.0341 0-0.69091-0.17721-1.0341-0.17497-0.34546-0.52716-0.34546zm0-0.35891q0.56305 0 0.85915 0.4464 0.29835 0.44415 0.29835 1.2921 0 0.8457-0.29835 1.2921-0.2961 0.44415-0.85915 0.44415t-0.8614-0.44415q-0.2961-0.4464-0.2961-1.2921 0-0.84794 0.2961-1.2921 0.29835-0.4464 0.8614-0.4464z"/>
    <path d="m93.967 246.22h0.74026v-2.555l-0.80532 0.16151v-0.41275l0.80083-0.16152h0.45313v2.9678h0.74026v0.38135h-1.9292z"/>
    <path d="m100.36 245.24v0.20189h-1.8978q0.02692 0.42621 0.25573 0.65053 0.23105 0.22208 0.64156 0.22208 0.23778 0 0.45986-0.0583 0.22432-0.0583 0.44416-0.17497v0.39032q-0.22208 0.0942-0.45538 0.14356-0.23329 0.0494-0.47332 0.0494-0.60118 0-0.95337-0.34994-0.34994-0.34994-0.34994-0.94664 0-0.61688 0.332-0.97804 0.33424-0.3634 0.89953-0.3634 0.50697 0 0.80083 0.32751 0.29611 0.32526 0.29611 0.88607zm-0.41276-0.12113q-0.0045-0.33873-0.19067-0.54062-0.18394-0.20189-0.48902-0.20189-0.34546 0-0.55408 0.19516-0.20638 0.19516-0.23778 0.54959z"/>
    <path d="m102.07 243.55q-0.34994 0-0.52715 0.34546-0.17497 0.34321-0.17497 1.0341 0 0.68867 0.17497 1.0341 0.17721 0.34321 0.52715 0.34321 0.35219 0 0.52716-0.34321 0.17721-0.34546 0.17721-1.0341 0-0.69091-0.17721-1.0341-0.17497-0.34546-0.52716-0.34546zm0-0.35891q0.56305 0 0.85916 0.4464 0.29834 0.44415 0.29834 1.2921 0 0.8457-0.29834 1.2921-0.29611 0.44415-0.85916 0.44415-0.56304 0-0.86139-0.44415-0.29611-0.4464-0.29611-1.2921 0-0.84794 0.29611-1.2921 0.29835-0.4464 0.86139-0.4464z"/>
    <path d="m105.39 244.79q0.32526 0.0695 0.50697 0.28937 0.18394 0.21984 0.18394 0.54286 0 0.49575-0.34097 0.76718t-0.96907 0.27143q-0.21086 0-0.43519-0.0426-0.22207-0.0404-0.45986-0.12337v-0.43743q0.18844 0.10992 0.41276 0.166 0.22432 0.0561 0.46883 0.0561 0.42621 0 0.64829-0.16825 0.22432-0.16824 0.22432-0.48902 0-0.2961-0.20862-0.4621-0.20637-0.16824-0.5765-0.16824h-0.39032v-0.37238h0.40826q0.33424 0 0.51146-0.13235 0.17721-0.13459 0.17721-0.38583 0-0.25797-0.18394-0.39481-0.18171-0.13908-0.52267-0.13908-0.18619 0-0.3993 0.0404-0.2131 0.0404-0.46883 0.12562v-0.40378q0.25797-0.0718 0.48229-0.10767 0.22657-0.0359 0.42621-0.0359 0.51594 0 0.81654 0.23553 0.30059 0.2333 0.30059 0.63259 0 0.27816-0.15927 0.47108-0.15927 0.19067-0.45313 0.2647z"/>
   </g>
   <g fill="#008f08" aria-label="e10 e11 e12">
    <path d="m110.39 245.24v0.20189h-1.8978q0.0269 0.42621 0.25572 0.65053 0.23105 0.22208 0.64156 0.22208 0.23778 0 0.45986-0.0583 0.22433-0.0583 0.44416-0.17497v0.39032q-0.22208 0.0942-0.45537 0.14356-0.2333 0.0494-0.47332 0.0494-0.60119 0-0.95337-0.34994-0.34994-0.34994-0.34994-0.94664 0-0.61688 0.33199-0.97804 0.33424-0.3634 0.89953-0.3634 0.50697 0 0.80083 0.32751 0.29611 0.32526 0.29611 0.88607zm-0.41275-0.12113q-4e-3 -0.33873-0.19068-0.54062-0.18394-0.20189-0.48902-0.20189-0.34545 0-0.55407 0.19516-0.20638 0.19516-0.23779 0.54959z"/>
    <path d="m111.21 246.22h0.74026v-2.555l-0.80532 0.16151v-0.41275l0.80083-0.16152h0.45313v2.9678h0.74027v0.38135h-1.9292z"/>
    <path d="m115.02 243.55q-0.34994 0-0.52716 0.34546-0.17497 0.34321-0.17497 1.0341 0 0.68867 0.17497 1.0341 0.17722 0.34321 0.52716 0.34321 0.35219 0 0.52716-0.34321 0.17721-0.34546 0.17721-1.0341 0-0.69091-0.17721-1.0341-0.17497-0.34546-0.52716-0.34546zm0-0.35891q0.56305 0 0.85915 0.4464 0.29835 0.44415 0.29835 1.2921 0 0.8457-0.29835 1.2921-0.2961 0.44415-0.85915 0.44415t-0.8614-0.44415q-0.2961-0.4464-0.2961-1.2921 0-0.84794 0.2961-1.2921 0.29835-0.4464 0.8614-0.4464z"/>
    <path d="m120.52 245.24v0.20189h-1.8978q0.0269 0.42621 0.25573 0.65053 0.23105 0.22208 0.64156 0.22208 0.23778 0 0.45986-0.0583 0.22432-0.0583 0.44415-0.17497v0.39032q-0.22208 0.0942-0.45537 0.14356-0.2333 0.0494-0.47332 0.0494-0.60118 0-0.95337-0.34994-0.34994-0.34994-0.34994-0.94664 0-0.61688 0.332-0.97804 0.33424-0.3634 0.89953-0.3634 0.50697 0 0.80083 0.32751 0.2961 0.32526 0.2961 0.88607zm-0.41275-0.12113q-4e-3 -0.33873-0.19067-0.54062-0.18395-0.20189-0.48903-0.20189-0.34545 0-0.55407 0.19516-0.20638 0.19516-0.23778 0.54959z"/>
    <path d="m121.34 246.22h0.74026v-2.555l-0.80531 0.16151v-0.41275l0.80083-0.16152h0.45313v2.9678h0.74026v0.38135h-1.9292z"/>
    <path d="m124.26 246.22h0.74026v-2.555l-0.80532 0.16151v-0.41275l0.80083-0.16152h0.45313v2.9678h0.74026v0.38135h-1.9292z"/>
    <path d="m130.66 245.24v0.20189h-1.8978q0.0269 0.42621 0.25573 0.65053 0.23105 0.22208 0.64156 0.22208 0.23778 0 0.45986-0.0583 0.22432-0.0583 0.44416-0.17497v0.39032q-0.22208 0.0942-0.45538 0.14356-0.23329 0.0494-0.47332 0.0494-0.60118 0-0.95337-0.34994-0.34994-0.34994-0.34994-0.94664 0-0.61688 0.332-0.97804 0.33424-0.3634 0.89953-0.3634 0.50697 0 0.80083 0.32751 0.2961 0.32526 0.2961 0.88607zm-0.41275-0.12113q-4e-3 -0.33873-0.19067-0.54062-0.18395-0.20189-0.48902-0.20189-0.34546 0-0.55408 0.19516-0.20637 0.19516-0.23778 0.54959z"/>
    <path d="m131.47 246.22h0.74027v-2.555l-0.80532 0.16151v-0.41275l0.80083-0.16152h0.45313v2.9678h0.74026v0.38135h-1.9292z"/>
    <path d="m134.71 246.22h1.5815v0.38135h-2.1266v-0.38135q0.25797-0.26694 0.70213-0.71558 0.4464-0.45089 0.5608-0.581 0.2176-0.24451 0.30284-0.41275 0.0875-0.17048 0.0875-0.33424 0-0.26694-0.18844-0.43518-0.18618-0.16825-0.48677-0.16825-0.21311 0-0.45089 0.074-0.23554 0.074-0.50473 0.22432v-0.45761q0.27368-0.10992 0.51146-0.166 0.23778-0.0561 0.43518-0.0561 0.52043 0 0.82999 0.26021 0.30957 0.26021 0.30957 0.6954 0 0.20637-0.0785 0.39256-0.0763 0.18395-0.28041 0.43519-0.0561 0.0651-0.35667 0.37686-0.30059 0.30956-0.84794 0.86812z"/>
   </g>
   <g fill="#0d62fc" aria-label="e20 e21 e22">
    <path d="m140.69 245.24v0.20189h-1.8978q0.0269 0.42621 0.25573 0.65053 0.23105 0.22208 0.64156 0.22208 0.23778 0 0.45986-0.0583 0.22432-0.0583 0.44415-0.17497v0.39032q-0.22207 0.0942-0.45537 0.14356-0.23329 0.0494-0.47332 0.0494-0.60118 0-0.95337-0.34994-0.34994-0.34994-0.34994-0.94664 0-0.61688 0.332-0.97804 0.33424-0.3634 0.89953-0.3634 0.50697 0 0.80083 0.32751 0.2961 0.32526 0.2961 0.88607zm-0.41275-0.12113q-4e-3 -0.33873-0.19067-0.54062-0.18395-0.20189-0.48902-0.20189-0.34546 0-0.55408 0.19516-0.20638 0.19516-0.23778 0.54959z"/>
    <path d="m141.81 246.22h1.5815v0.38135h-2.1266v-0.38135q0.25797-0.26694 0.70212-0.71558 0.44641-0.45089 0.56081-0.581 0.21759-0.24451 0.30283-0.41275 0.0875-0.17048 0.0875-0.33424 0-0.26694-0.18843-0.43518-0.18619-0.16825-0.48678-0.16825-0.2131 0-0.45089 0.074-0.23553 0.074-0.50472 0.22432v-0.45761q0.27367-0.10992 0.51145-0.166 0.23778-0.0561 0.43519-0.0561 0.52042 0 0.82999 0.26021 0.30956 0.26021 0.30956 0.6954 0 0.20637-0.0785 0.39256-0.0763 0.18395-0.2804 0.43519-0.0561 0.0651-0.35667 0.37686-0.30059 0.30956-0.84794 0.86812z"/>
    <path d="m145.31 243.55q-0.34995 0-0.52716 0.34546-0.17497 0.34321-0.17497 1.0341 0 0.68867 0.17497 1.0341 0.17721 0.34321 0.52716 0.34321 0.35218 0 0.52715-0.34321 0.17722-0.34546 0.17722-1.0341 0-0.69091-0.17722-1.0341-0.17497-0.34546-0.52715-0.34546zm0-0.35891q0.56304 0 0.85915 0.4464 0.29835 0.44415 0.29835 1.2921 0 0.8457-0.29835 1.2921-0.29611 0.44415-0.85915 0.44415-0.56305 0-0.8614-0.44415-0.29611-0.4464-0.29611-1.2921 0-0.84794 0.29611-1.2921 0.29835-0.4464 0.8614-0.4464z"/>
    <path d="m150.82 245.24v0.20189h-1.8978q0.0269 0.42621 0.25573 0.65053 0.23105 0.22208 0.64156 0.22208 0.23778 0 0.45986-0.0583 0.22432-0.0583 0.44416-0.17497v0.39032q-0.22208 0.0942-0.45538 0.14356-0.23329 0.0494-0.47332 0.0494-0.60118 0-0.95336-0.34994-0.34995-0.34994-0.34995-0.94664 0-0.61688 0.332-0.97804 0.33424-0.3634 0.89953-0.3634 0.50697 0 0.80083 0.32751 0.29611 0.32526 0.29611 0.88607zm-0.41276-0.12113q-4e-3 -0.33873-0.19067-0.54062-0.18394-0.20189-0.48902-0.20189-0.34546 0-0.55408 0.19516-0.20637 0.19516-0.23778 0.54959z"/>
    <path d="m151.94 246.22h1.5815v0.38135h-2.1266v-0.38135q0.25797-0.26694 0.70213-0.71558 0.4464-0.45089 0.5608-0.581 0.21759-0.24451 0.30284-0.41275 0.0875-0.17048 0.0875-0.33424 0-0.26694-0.18843-0.43518-0.18619-0.16825-0.48678-0.16825-0.2131 0-0.45088 0.074-0.23554 0.074-0.50473 0.22432v-0.45761q0.27367-0.10992 0.51146-0.166 0.23778-0.0561 0.43518-0.0561 0.52043 0 0.82999 0.26021 0.30957 0.26021 0.30957 0.6954 0 0.20637-0.0785 0.39256-0.0763 0.18395-0.2804 0.43519-0.0561 0.0651-0.35667 0.37686-0.30059 0.30956-0.84794 0.86812z"/>
    <path d="m154.56 246.22h0.74026v-2.555l-0.80531 0.16151v-0.41275l0.80083-0.16152h0.45313v2.9678h0.74026v0.38135h-1.9292z"/>
    <path d="m160.95 245.24v0.20189h-1.8978q0.0269 0.42621 0.25572 0.65053 0.23105 0.22208 0.64156 0.22208 0.23778 0 0.45986-0.0583 0.22432-0.0583 0.44416-0.17497v0.39032q-0.22208 0.0942-0.45537 0.14356-0.2333 0.0494-0.47332 0.0494-0.60119 0-0.95337-0.34994-0.34994-0.34994-0.34994-0.94664 0-0.61688 0.33199-0.97804 0.33424-0.3634 0.89953-0.3634 0.50697 0 0.80083 0.32751 0.29611 0.32526 0.29611 0.88607zm-0.41275-0.12113q-4e-3 -0.33873-0.19068-0.54062-0.18394-0.20189-0.48902-0.20189-0.34545 0-0.55407 0.19516-0.20638 0.19516-0.23779 0.54959z"/>
    <path d="m162.08 246.22h1.5815v0.38135h-2.1266v-0.38135q0.25797-0.26694 0.70213-0.71558 0.4464-0.45089 0.5608-0.581 0.2176-0.24451 0.30284-0.41275 0.0875-0.17048 0.0875-0.33424 0-0.26694-0.18843-0.43518-0.18618-0.16825-0.48677-0.16825-0.21311 0-0.45089 0.074-0.23554 0.074-0.50473 0.22432v-0.45761q0.27368-0.10992 0.51146-0.166 0.23778-0.0561 0.43518-0.0561 0.52043 0 0.82999 0.26021 0.30957 0.26021 0.30957 0.6954 0 0.20637-0.0785 0.39256-0.0763 0.18395-0.28041 0.43519-0.0561 0.0651-0.35667 0.37686-0.30059 0.30956-0.84794 0.86812z"/>
    <path d="m165 246.22h1.5815v0.38135h-2.1266v-0.38135q0.25797-0.26694 0.70212-0.71558 0.44641-0.45089 0.56081-0.581 0.21759-0.24451 0.30283-0.41275 0.0875-0.17048 0.0875-0.33424 0-0.26694-0.18843-0.43518-0.18619-0.16825-0.48678-0.16825-0.21311 0-0.45089 0.074-0.23553 0.074-0.50472 0.22432v-0.45761q0.27367-0.10992 0.51145-0.166 0.23778-0.0561 0.43519-0.0561 0.52042 0 0.82999 0.26021 0.30956 0.26021 0.30956 0.6954 0 0.20637-0.0785 0.39256-0.0763 0.18395-0.2804 0.43519-0.0561 0.0651-0.35667 0.37686-0.3006 0.30956-0.84794 0.86812z"/>
   </g>
  </g>
  <g fill="none" stroke="#f1ad06" stroke-opacity=".91475" stroke-width=".71845">
   <path d="m87.172 240.59h9.2757v9.2757h-9.2757z"/>
   <path d="m117.48 240.59h9.2757v9.2757h-9.2757z"/>
   <path d="m147.86 240.59h9.2757v9.2757h-9.2757z"/>
  </g>
  <g stroke-width=".23943">
   <g transform="matrix(.65043 0 0 .65043 10.756 107.3)" fill="#d80000" aria-label="e00 e01 e02">
    <path d="m10.031 201.62v0.3104h-2.9177q0.041386 0.65527 0.39317 1.0002 0.35523 0.34144 0.98636 0.34144 0.36557 0 0.70701-0.0897 0.34488-0.0897 0.68287-0.26901v0.60009q-0.34143 0.14485-0.70011 0.22073-0.35868 0.0759-0.7277 0.0759-0.92428 0-1.4657-0.53801-0.53802-0.53802-0.53802-1.4554 0-0.94843 0.51043-1.5037 0.51387-0.55871 1.383-0.55871 0.77943 0 1.2312 0.50353 0.45524 0.50008 0.45524 1.3623zm-0.63458-0.18623q-0.0069-0.52078-0.29315-0.83117-0.2828-0.31039-0.75184-0.31039-0.53112 0-0.85186 0.30004-0.31729 0.30005-0.36557 0.84497z"/>
    <path d="m12.652 199.02q-0.53802 0-0.81047 0.53112-0.26901 0.52767-0.26901 1.5899 0 1.0588 0.26901 1.5899 0.27246 0.52767 0.81047 0.52767 0.54146 0 0.81047-0.52767 0.27246-0.53112 0.27246-1.5899 0-1.0622-0.27246-1.5899-0.26901-0.53112-0.81047-0.53112zm0-0.55181q0.86565 0 1.3209 0.68632 0.45869 0.68286 0.45869 1.9865 0 1.3002-0.45869 1.9865-0.45524 0.68286-1.3209 0.68286-0.86565 0-1.3243-0.68286-0.45524-0.68632-0.45524-1.9865 0-1.3037 0.45524-1.9865 0.45869-0.68632 1.3243-0.68632z"/>
    <path d="m17.146 199.02q-0.53802 0-0.81047 0.53112-0.26901 0.52767-0.26901 1.5899 0 1.0588 0.26901 1.5899 0.27246 0.52767 0.81047 0.52767 0.54146 0 0.81047-0.52767 0.27246-0.53112 0.27246-1.5899 0-1.0622-0.27246-1.5899-0.26901-0.53112-0.81047-0.53112zm0-0.55181q0.86565 0 1.3209 0.68632 0.45869 0.68286 0.45869 1.9865 0 1.3002-0.45869 1.9865-0.45524 0.68286-1.3209 0.68286-0.86565 0-1.3243-0.68286-0.45524-0.68632-0.45524-1.9865 0-1.3037 0.45524-1.9865 0.45869-0.68632 1.3243-0.68632z"/>
    <path d="m25.609 201.62v0.3104h-2.9177q0.04139 0.65527 0.39316 1.0002 0.35523 0.34144 0.98636 0.34144 0.36557 0 0.70701-0.0897 0.34488-0.0897 0.68287-0.26901v0.60009q-0.34143 0.14485-0.70011 0.22073-0.35868 0.0759-0.7277 0.0759-0.92428 0-1.4657-0.53801-0.53802-0.53802-0.53802-1.4554 0-0.94843 0.51042-1.5037 0.51387-0.55871 1.383-0.55871 0.77943 0 1.2312 0.50353 0.45524 0.50008 0.45524 1.3623zm-0.63458-0.18623q-0.0069-0.52078-0.29315-0.83117-0.2828-0.31039-0.75184-0.31039-0.53112 0-0.85186 0.30004-0.31729 0.30005-0.36558 0.84497z"/>
    <path d="m28.23 199.02q-0.53802 0-0.81047 0.53112-0.26901 0.52767-0.26901 1.5899 0 1.0588 0.26901 1.5899 0.27246 0.52767 0.81047 0.52767 0.54146 0 0.81047-0.52767 0.27246-0.53112 0.27246-1.5899 0-1.0622-0.27246-1.5899-0.26901-0.53112-0.81047-0.53112zm0-0.55181q0.86565 0 1.3209 0.68632 0.45869 0.68286 0.45869 1.9865 0 1.3002-0.45869 1.9865-0.45524 0.68286-1.3209 0.68286-0.86565 0-1.3243-0.68286-0.45524-0.68632-0.45524-1.9865 0-1.3037 0.45524-1.9865 0.45869-0.68632 1.3243-0.68632z"/>
    <path d="m31.355 203.13h1.1381v-3.9282l-1.2381 0.24832v-0.63458l1.2312-0.24832h0.69666v4.5628h1.1381v0.5863h-2.966z"/>
    <path d="m41.187 201.62v0.3104h-2.9177q0.04139 0.65527 0.39316 1.0002 0.35523 0.34144 0.98636 0.34144 0.36558 0 0.70701-0.0897 0.34488-0.0897 0.68287-0.26901v0.60009q-0.34143 0.14485-0.70011 0.22073-0.35868 0.0759-0.7277 0.0759-0.92428 0-1.4657-0.53801-0.53802-0.53802-0.53802-1.4554 0-0.94843 0.51042-1.5037 0.51387-0.55871 1.383-0.55871 0.77943 0 1.2312 0.50353 0.45524 0.50008 0.45524 1.3623zm-0.63458-0.18623q-0.0069-0.52078-0.29315-0.83117-0.2828-0.31039-0.75184-0.31039-0.53112 0-0.85186 0.30004-0.31729 0.30005-0.36558 0.84497z"/>
    <path d="m43.808 199.02q-0.53802 0-0.81047 0.53112-0.26901 0.52767-0.26901 1.5899 0 1.0588 0.26901 1.5899 0.27246 0.52767 0.81047 0.52767 0.54146 0 0.81047-0.52767 0.27246-0.53112 0.27246-1.5899 0-1.0622-0.27246-1.5899-0.26901-0.53112-0.81047-0.53112zm0-0.55181q0.86565 0 1.3209 0.68632 0.45869 0.68286 0.45869 1.9865 0 1.3002-0.45869 1.9865-0.45524 0.68286-1.3209 0.68286-0.86565 0-1.3243-0.68286-0.45524-0.68632-0.45524-1.9865 0-1.3037 0.45524-1.9865 0.45869-0.68632 1.3243-0.68632z"/>
    <path d="m47.412 203.13h2.4314v0.5863h-3.2695v-0.5863q0.39661-0.41041 1.0795-1.1002 0.68632-0.69321 0.8622-0.89324 0.33454-0.37592 0.46559-0.63458 0.1345-0.26211 0.1345-0.51388 0-0.41041-0.2897-0.66907-0.28625-0.25866-0.74839-0.25866-0.32764 0-0.69321 0.11381-0.36212 0.11381-0.77598 0.34488v-0.70355q0.42076-0.169 0.78633-0.25522 0.36558-0.0862 0.66907-0.0862 0.80013 0 1.2761 0.40007 0.47594 0.40006 0.47594 1.0691 0 0.31729-0.12071 0.60354-0.11726 0.28281-0.4311 0.66907-0.08622 0.10002-0.54836 0.5794-0.46214 0.47594-1.3037 1.3347z"/>
   </g>
   <g transform="matrix(.65043 0 0 .65043 10.756 107.3)" fill="#008f08" aria-label="e10 e11 e12">
    <path d="m10.031 212.59v0.31039h-2.9177q0.041386 0.65528 0.39317 1.0002 0.35523 0.34143 0.98636 0.34143 0.36557 0 0.70701-0.0897 0.34488-0.0897 0.68287-0.26901v0.60009q-0.34143 0.14485-0.70011 0.22073-0.35868 0.0759-0.7277 0.0759-0.92428 0-1.4657-0.53802-0.53802-0.53801-0.53802-1.4554 0-0.94842 0.51043-1.5037 0.51387-0.55871 1.383-0.55871 0.77943 0 1.2312 0.50353 0.45524 0.50008 0.45524 1.3623zm-0.63458-0.18624q-0.0069-0.52077-0.29315-0.83116-0.2828-0.31039-0.75184-0.31039-0.53112 0-0.85186 0.30004-0.31729 0.30005-0.36557 0.84496z"/>
    <path d="m11.283 214.1h1.1381v-3.9282l-1.2381 0.24832v-0.63459l1.2312-0.24831h0.69666v4.5628h1.1381v0.58629h-2.966z"/>
    <path d="m17.146 209.99q-0.53802 0-0.81047 0.53112-0.26901 0.52767-0.26901 1.5899 0 1.0588 0.26901 1.5899 0.27246 0.52767 0.81047 0.52767 0.54146 0 0.81047-0.52767 0.27246-0.53112 0.27246-1.5899 0-1.0622-0.27246-1.5899-0.26901-0.53112-0.81047-0.53112zm0-0.55181q0.86565 0 1.3209 0.68632 0.45869 0.68286 0.45869 1.9865 0 1.3002-0.45869 1.9865-0.45524 0.68287-1.3209 0.68287-0.86565 0-1.3243-0.68287-0.45524-0.68631-0.45524-1.9865 0-1.3036 0.45524-1.9865 0.45869-0.68632 1.3243-0.68632z"/>
    <path d="m25.609 212.59v0.31039h-2.9177q0.04139 0.65528 0.39316 1.0002 0.35523 0.34143 0.98636 0.34143 0.36557 0 0.70701-0.0897 0.34488-0.0897 0.68287-0.26901v0.60009q-0.34143 0.14485-0.70011 0.22073-0.35868 0.0759-0.7277 0.0759-0.92428 0-1.4657-0.53802-0.53802-0.53801-0.53802-1.4554 0-0.94842 0.51042-1.5037 0.51387-0.55871 1.383-0.55871 0.77943 0 1.2312 0.50353 0.45524 0.50008 0.45524 1.3623zm-0.63458-0.18624q-0.0069-0.52077-0.29315-0.83116-0.2828-0.31039-0.75184-0.31039-0.53112 0-0.85186 0.30004-0.31729 0.30005-0.36558 0.84496z"/>
    <path d="m26.861 214.1h1.1381v-3.9282l-1.2381 0.24832v-0.63459l1.2312-0.24831h0.69666v4.5628h1.1381v0.58629h-2.966z"/>
    <path d="m31.355 214.1h1.1381v-3.9282l-1.2381 0.24832v-0.63459l1.2312-0.24831h0.69666v4.5628h1.1381v0.58629h-2.966z"/>
    <path d="m41.187 212.59v0.31039h-2.9177q0.04139 0.65528 0.39316 1.0002 0.35523 0.34143 0.98636 0.34143 0.36558 0 0.70701-0.0897 0.34488-0.0897 0.68287-0.26901v0.60009q-0.34143 0.14485-0.70011 0.22073-0.35868 0.0759-0.7277 0.0759-0.92428 0-1.4657-0.53802-0.53802-0.53801-0.53802-1.4554 0-0.94842 0.51042-1.5037 0.51387-0.55871 1.383-0.55871 0.77943 0 1.2312 0.50353 0.45524 0.50008 0.45524 1.3623zm-0.63458-0.18624q-0.0069-0.52077-0.29315-0.83116-0.2828-0.31039-0.75184-0.31039-0.53112 0-0.85186 0.30004-0.31729 0.30005-0.36558 0.84496z"/>
    <path d="m42.439 214.1h1.1381v-3.9282l-1.2381 0.24832v-0.63459l1.2312-0.24831h0.69666v4.5628h1.1381v0.58629h-2.966z"/>
    <path d="m47.412 214.1h2.4314v0.58629h-3.2695v-0.58629q0.39661-0.41041 1.0795-1.1002 0.68632-0.69321 0.8622-0.89324 0.33454-0.37592 0.46559-0.63458 0.1345-0.26211 0.1345-0.51388 0-0.41041-0.2897-0.66907-0.28625-0.25866-0.74839-0.25866-0.32764 0-0.69321 0.11381-0.36212 0.11381-0.77598 0.34488v-0.70356q0.42076-0.16899 0.78633-0.25521 0.36558-0.0862 0.66907-0.0862 0.80013 0 1.2761 0.40006 0.47594 0.40007 0.47594 1.0691 0 0.31729-0.12071 0.60354-0.11726 0.2828-0.4311 0.66907-0.08622 0.10002-0.54836 0.5794-0.46214 0.47594-1.3037 1.3347z"/>
   </g>
   <g transform="matrix(.65043 0 0 .65043 10.756 107.3)" fill="#0d62fc" aria-label="e20 e21 e22">
    <path d="m10.031 223.56v0.3104h-2.9177q0.041386 0.65527 0.39317 1.0002 0.35523 0.34143 0.98636 0.34143 0.36557 0 0.70701-0.0897 0.34488-0.0897 0.68287-0.26901v0.6001q-0.34143 0.14485-0.70011 0.22072-0.35868 0.0759-0.7277 0.0759-0.92428 0-1.4657-0.53801-0.53802-0.53802-0.53802-1.4554 0-0.94843 0.51043-1.5037 0.51387-0.55871 1.383-0.55871 0.77943 0 1.2312 0.50353 0.45524 0.50008 0.45524 1.3623zm-0.63458-0.18623q-0.0069-0.52077-0.29315-0.83117-0.2828-0.31039-0.75184-0.31039-0.53112 0-0.85186 0.30005-0.31729 0.30004-0.36557 0.84496z"/>
    <path d="m11.762 225.07h2.4314v0.5863h-3.2695v-0.5863q0.39662-0.41041 1.0795-1.1002 0.68632-0.69322 0.8622-0.89325 0.33454-0.37592 0.46559-0.63458 0.1345-0.26211 0.1345-0.51387 0-0.41041-0.2897-0.66908-0.28625-0.25866-0.74839-0.25866-0.32764 0-0.69321 0.11381-0.36213 0.11381-0.77598 0.34489v-0.70356q0.42076-0.169 0.78633-0.25522 0.36558-0.0862 0.66907-0.0862 0.80013 0 1.2761 0.40007 0.47594 0.40006 0.47594 1.0691 0 0.31729-0.12071 0.60354-0.11726 0.28281-0.4311 0.66907-0.08622 0.10002-0.54836 0.57941-0.46214 0.47593-1.3037 1.3347z"/>
    <path d="m17.146 220.96q-0.53802 0-0.81047 0.53112-0.26901 0.52767-0.26901 1.5899 0 1.0588 0.26901 1.5899 0.27246 0.52767 0.81047 0.52767 0.54146 0 0.81047-0.52767 0.27246-0.53111 0.27246-1.5899 0-1.0622-0.27246-1.5899-0.26901-0.53112-0.81047-0.53112zm0-0.55181q0.86565 0 1.3209 0.68632 0.45869 0.68286 0.45869 1.9865 0 1.3002-0.45869 1.9865-0.45524 0.68286-1.3209 0.68286-0.86565 0-1.3243-0.68286-0.45524-0.68632-0.45524-1.9865 0-1.3037 0.45524-1.9865 0.45869-0.68632 1.3243-0.68632z"/>
    <path d="m25.609 223.56v0.3104h-2.9177q0.04139 0.65527 0.39316 1.0002 0.35523 0.34143 0.98636 0.34143 0.36557 0 0.70701-0.0897 0.34488-0.0897 0.68287-0.26901v0.6001q-0.34143 0.14485-0.70011 0.22072-0.35868 0.0759-0.7277 0.0759-0.92428 0-1.4657-0.53801-0.53802-0.53802-0.53802-1.4554 0-0.94843 0.51042-1.5037 0.51387-0.55871 1.383-0.55871 0.77943 0 1.2312 0.50353 0.45524 0.50008 0.45524 1.3623zm-0.63458-0.18623q-0.0069-0.52077-0.29315-0.83117-0.2828-0.31039-0.75184-0.31039-0.53112 0-0.85186 0.30005-0.31729 0.30004-0.36558 0.84496z"/>
    <path d="m27.34 225.07h2.4314v0.5863h-3.2695v-0.5863q0.39661-0.41041 1.0795-1.1002 0.68632-0.69322 0.8622-0.89325 0.33454-0.37592 0.46559-0.63458 0.1345-0.26211 0.1345-0.51387 0-0.41041-0.2897-0.66908-0.28625-0.25866-0.74839-0.25866-0.32764 0-0.69321 0.11381-0.36213 0.11381-0.77598 0.34489v-0.70356q0.42076-0.169 0.78633-0.25522 0.36558-0.0862 0.66907-0.0862 0.80013 0 1.2761 0.40007 0.47594 0.40006 0.47594 1.0691 0 0.31729-0.12071 0.60354-0.11726 0.28281-0.4311 0.66907-0.08622 0.10002-0.54836 0.57941-0.46214 0.47593-1.3037 1.3347z"/>
    <path d="m31.355 225.07h1.1381v-3.9282l-1.2381 0.24832v-0.63458l1.2312-0.24832h0.69666v4.5628h1.1381v0.5863h-2.966z"/>
    <path d="m41.187 223.56v0.3104h-2.9177q0.04139 0.65527 0.39316 1.0002 0.35523 0.34143 0.98636 0.34143 0.36558 0 0.70701-0.0897 0.34488-0.0897 0.68287-0.26901v0.6001q-0.34143 0.14485-0.70011 0.22072-0.35868 0.0759-0.7277 0.0759-0.92428 0-1.4657-0.53801-0.53802-0.53802-0.53802-1.4554 0-0.94843 0.51042-1.5037 0.51387-0.55871 1.383-0.55871 0.77943 0 1.2312 0.50353 0.45524 0.50008 0.45524 1.3623zm-0.63458-0.18623q-0.0069-0.52077-0.29315-0.83117-0.2828-0.31039-0.75184-0.31039-0.53112 0-0.85186 0.30005-0.31729 0.30004-0.36558 0.84496z"/>
    <path d="m42.919 225.07h2.4314v0.5863h-3.2695v-0.5863q0.39661-0.41041 1.0795-1.1002 0.68632-0.69322 0.8622-0.89325 0.33454-0.37592 0.46559-0.63458 0.1345-0.26211 0.1345-0.51387 0-0.41041-0.2897-0.66908-0.28625-0.25866-0.74839-0.25866-0.32764 0-0.69321 0.11381-0.36213 0.11381-0.77598 0.34489v-0.70356q0.42076-0.169 0.78633-0.25522 0.36558-0.0862 0.66907-0.0862 0.80013 0 1.2761 0.40007 0.47594 0.40006 0.47594 1.0691 0 0.31729-0.12071 0.60354-0.11726 0.28281-0.4311 0.66907-0.08622 0.10002-0.54836 0.57941-0.46214 0.47593-1.3037 1.3347z"/>
    <path d="m47.412 225.07h2.4314v0.5863h-3.2695v-0.5863q0.39661-0.41041 1.0795-1.1002 0.68632-0.69322 0.8622-0.89325 0.33454-0.37592 0.46559-0.63458 0.1345-0.26211 0.1345-0.51387 0-0.41041-0.2897-0.66908-0.28625-0.25866-0.74839-0.25866-0.32764 0-0.69321 0.11381-0.36212 0.11381-0.77598 0.34489v-0.70356q0.42076-0.169 0.78633-0.25522 0.36558-0.0862 0.66907-0.0862 0.80013 0 1.2761 0.40007 0.47594 0.40006 0.47594 1.0691 0 0.31729-0.12071 0.60354-0.11726 0.28281-0.4311 0.66907-0.08622 0.10002-0.54836 0.57941-0.46214 0.47593-1.3037 1.3347z"/>
   </g>
  </g>
  <path d="m24.327 234.75h9.2757v20.948h-9.2757z" fill="none" stroke="#f1ad06" stroke-opacity=".91475" stroke-width=".71845"/>
 </g>
</svg>
