<?xml version="1.0" encoding="UTF-8"?>
<!-- Created with Inkscape (http://www.inkscape.org/) -->
<svg width="175mm" height="40mm" version="1.1" viewBox="0 0 175 40" xmlns="http://www.w3.org/2000/svg" xmlns:cc="http://creativecommons.org/ns#" xmlns:dc="http://purl.org/dc/elements/1.1/" xmlns:rdf="http://www.w3.org/1999/02/22-rdf-syntax-ns#">
 <metadata>
  <rdf:RDF>
   <cc:Work rdf:about="">
    <dc:format>image/svg+xml</dc:format>
    <dc:type rdf:resource="http://purl.org/dc/dcmitype/StillImage"/>
   </cc:Work>
  </rdf:RDF>
 </metadata>
 <g transform="translate(.0064617 -229.61)">
  <text x="20.659971" y="263.95819" fill="#858585" font-family="sans-serif" font-size="4.1712px" letter-spacing="0px" stroke-width=".24049" word-spacing="0px" style="line-height:1.25" xml:space="preserve"><tspan x="20.659971" y="263.95819" fill="#858585" stroke-width=".24049">array2D</tspan><tspan x="20.659971" y="269.17218"/></text>
  <text x="94.723145" y="263.95819" fill="#858585" font-family="sans-serif" font-size="4.1712px" letter-spacing="0px" stroke-width=".24049" word-spacing="0px" style="line-height:1.25" xml:space="preserve"><tspan x="94.723145" y="263.95819" fill="#858585" stroke-width=".24049">array1D, row major layout</tspan></text>
  <path d="m61.21 263.13h7.9709v0.62603l1.6449-0.9508-1.6449-0.95088v0.62602h-7.9709z" color="#000000" color-rendering="auto" dominant-baseline="auto" fill="none" image-rendering="auto" shape-rendering="auto" solid-color="#000000" stroke="#858585" stroke-width=".311" style="font-feature-settings:normal;font-variant-alternates:normal;font-variant-caps:normal;font-variant-ligatures:normal;font-variant-numeric:normal;font-variant-position:normal;isolation:auto;mix-blend-mode:normal;shape-padding:0;text-decoration-color:#000000;text-decoration-line:none;text-decoration-style:solid;text-indent:0;text-orientation:mixed;text-transform:none;white-space:normal"/>
  <g fill="#d80000" stroke-width=".15573">
   <path d="m80.098 245.24v0.20189h-1.8978q0.02692 0.42621 0.25573 0.65053 0.23105 0.22208 0.64156 0.22208 0.23778 0 0.45986-0.0583 0.22432-0.0583 0.44416-0.17497v0.39032q-0.22208 0.0942-0.45537 0.14356-0.23329 0.0494-0.47332 0.0494-0.60118 0-0.95337-0.34994-0.34994-0.34994-0.34994-0.94664 0-0.61688 0.332-0.97804 0.33424-0.3634 0.89953-0.3634 0.50697 0 0.80083 0.32751 0.2961 0.32527 0.2961 0.88607zm-0.41275-0.12113q-0.0045-0.33873-0.19067-0.54062-0.18394-0.20189-0.48902-0.20189-0.34546 0-0.55408 0.19516-0.20638 0.19516-0.23778 0.54959z"/>
   <path d="m81.802 243.55q-0.34994 0-0.52716 0.34546-0.17497 0.34321-0.17497 1.0341 0 0.68867 0.17497 1.0341 0.17722 0.34321 0.52716 0.34321 0.35218 0 0.52716-0.34321 0.17721-0.34546 0.17721-1.0341 0-0.69091-0.17721-1.0341-0.17497-0.34546-0.52716-0.34546zm0-0.35891q0.56305 0 0.85915 0.4464 0.29835 0.44416 0.29835 1.2921 0 0.8457-0.29835 1.2921-0.2961 0.44415-0.85915 0.44415-0.56305 0-0.8614-0.44415-0.2961-0.4464-0.2961-1.2921 0-0.84793 0.2961-1.2921 0.29835-0.4464 0.8614-0.4464z"/>
   <path d="m84.725 243.55q-0.34994 0-0.52716 0.34546-0.17497 0.34321-0.17497 1.0341 0 0.68867 0.17497 1.0341 0.17721 0.34321 0.52716 0.34321 0.35219 0 0.52716-0.34321 0.17721-0.34546 0.17721-1.0341 0-0.69091-0.17721-1.0341-0.17497-0.34546-0.52716-0.34546zm0-0.35891q0.56305 0 0.85915 0.4464 0.29835 0.44416 0.29835 1.2921 0 0.8457-0.29835 1.2921-0.2961 0.44415-0.85915 0.44415-0.56305 0-0.8614-0.44415-0.2961-0.4464-0.2961-1.2921 0-0.84793 0.2961-1.2921 0.29835-0.4464 0.8614-0.4464z"/>
   <path d="m90.23 245.24v0.20189h-1.8978q0.02692 0.42621 0.25573 0.65053 0.23105 0.22208 0.64156 0.22208 0.23778 0 0.45986-0.0583 0.22432-0.0583 0.44416-0.17497v0.39032q-0.22208 0.0942-0.45537 0.14356-0.2333 0.0494-0.47332 0.0494-0.60118 0-0.95337-0.34994-0.34994-0.34994-0.34994-0.94664 0-0.61688 0.332-0.97804 0.33424-0.3634 0.89953-0.3634 0.50697 0 0.80083 0.32751 0.2961 0.32527 0.2961 0.88607zm-0.41275-0.12113q-0.0045-0.33873-0.19067-0.54062-0.18394-0.20189-0.48902-0.20189-0.34546 0-0.55408 0.19516-0.20638 0.19516-0.23778 0.54959z"/>
   <path d="m91.935 243.55q-0.34994 0-0.52716 0.34546-0.17497 0.34321-0.17497 1.0341 0 0.68867 0.17497 1.0341 0.17721 0.34321 0.52716 0.34321 0.35219 0 0.52716-0.34321 0.17721-0.34546 0.17721-1.0341 0-0.69091-0.17721-1.0341-0.17497-0.34546-0.52716-0.34546zm0-0.35891q0.56305 0 0.85915 0.4464 0.29835 0.44416 0.29835 1.2921 0 0.8457-0.29835 1.2921-0.2961 0.44415-0.85915 0.44415-0.56305 0-0.8614-0.44415-0.2961-0.4464-0.2961-1.2921 0-0.84793 0.2961-1.2921 0.29835-0.4464 0.8614-0.4464z"/>
   <path d="m93.967 246.22h0.74026v-2.555l-0.80532 0.16151v-0.41275l0.80083-0.16151h0.45313v2.9678h0.74026v0.38135h-1.9292z"/>
   <path d="m100.36 245.24v0.20189h-1.8978q0.02692 0.42621 0.25573 0.65053 0.23105 0.22208 0.64156 0.22208 0.23778 0 0.45986-0.0583 0.22432-0.0583 0.44416-0.17497v0.39032q-0.22208 0.0942-0.45537 0.14356-0.2333 0.0494-0.47332 0.0494-0.60118 0-0.95337-0.34994-0.34994-0.34994-0.34994-0.94664 0-0.61688 0.332-0.97804 0.33424-0.3634 0.89953-0.3634 0.50697 0 0.80083 0.32751 0.2961 0.32527 0.2961 0.88607zm-0.41275-0.12113q-0.0045-0.33873-0.19067-0.54062-0.18394-0.20189-0.48902-0.20189-0.34546 0-0.55408 0.19516-0.20638 0.19516-0.23778 0.54959z"/>
   <path d="m102.07 243.55q-0.34995 0-0.52716 0.34546-0.17497 0.34321-0.17497 1.0341 0 0.68867 0.17497 1.0341 0.17721 0.34321 0.52716 0.34321 0.35218 0 0.52715-0.34321 0.17722-0.34546 0.17722-1.0341 0-0.69091-0.17722-1.0341-0.17497-0.34546-0.52715-0.34546zm0-0.35891q0.56304 0 0.85915 0.4464 0.29835 0.44416 0.29835 1.2921 0 0.8457-0.29835 1.2921-0.29611 0.44415-0.85915 0.44415-0.56305 0-0.8614-0.44415-0.2961-0.4464-0.2961-1.2921 0-0.84793 0.2961-1.2921 0.29835-0.4464 0.8614-0.4464z"/>
   <path d="m105.39 244.79c0.31191 0.0551 0.59548 0.28875 0.66504 0.60448 0.085 0.37196-0.03 0.80868-0.35884 1.0278-0.34628 0.23629-0.78914 0.26315-1.1942 0.22192-0.21342-0.0265-0.42336-0.0782-0.6262-0.14933v-0.43743c0.37594 0.21394 0.83598 0.27327 1.2568 0.18004 0.23588-0.0513 0.45477-0.23307 0.4867-0.48217 0.0457-0.23677-0.036-0.50749-0.25204-0.63457-0.25859-0.1672-0.5759-0.12205-0.86804-0.12881-0.0724 0.0219-0.0362-0.0648-0.0446-0.107v-0.26537c0.24491-8e-3 0.49546 0.0249 0.73459-0.0419 0.20222-0.049 0.36407-0.2333 0.36165-0.44536 0.0223-0.21406-0.1088-0.42701-0.31237-0.49909-0.32712-0.12109-0.6883-0.0562-1.0166 0.0263-0.0798-9e-3 -0.27585 0.15222-0.24507-6e-5v-0.32969c0.47378-0.12765 0.99385-0.22286 1.4693-0.0516 0.28882 0.10355 0.53168 0.3636 0.55163 0.67888 0.0384 0.28954-0.095 0.60227-0.36178 0.73798-0.077 0.0429-0.16064 0.0736-0.24592 0.095z"/>
  </g>
  <g fill="#008f08" stroke-width=".15573">
   <path d="m110.39 245.24v0.20189h-1.8978c0.0127 0.29271 0.1294 0.61098 0.39989 0.75788 0.28328 0.15382 0.62456 0.13177 0.92944 0.0635 0.16431-0.0401 0.32274-0.10272 0.47198-0.18203v0.39032c-0.42515 0.17788-0.9085 0.25291-1.3604 0.13956-0.38307-0.0956-0.70311-0.40268-0.80935-0.78363-0.0931-0.33422-0.0831-0.69852 0.026-1.0277 0.12309-0.36848 0.44391-0.66661 0.82797-0.74124 0.36278-0.0749 0.78167-0.0309 1.0591 0.23695 0.26045 0.23918 0.35629 0.60172 0.35308 0.94453zm-0.41275-0.12113c6e-3 -0.26987-0.12126-0.5592-0.37481-0.67863-0.225-0.10033-0.49693-0.0803-0.71521 0.0284-0.24041 0.12264-0.36491 0.39263-0.38154 0.65251 0.49052-7.5e-4 0.98104-1e-3 1.4716-2e-3z"/>
   <path d="m111.21 246.22h0.74026v-2.555l-0.80532 0.16151v-0.41275l0.80083-0.16151h0.45313v2.9678h0.74026v0.38135h-1.9292z"/>
   <path d="m115.02 243.55q-0.34995 0-0.52716 0.34546-0.17497 0.34321-0.17497 1.0341 0 0.68867 0.17497 1.0341 0.17721 0.34321 0.52716 0.34321 0.35218 0 0.52715-0.34321 0.17722-0.34546 0.17722-1.0341 0-0.69091-0.17722-1.0341-0.17497-0.34546-0.52715-0.34546zm0-0.35891q0.56304 0 0.85915 0.4464 0.29835 0.44416 0.29835 1.2921 0 0.8457-0.29835 1.2921-0.29611 0.44415-0.85915 0.44415-0.56305 0-0.8614-0.44415-0.2961-0.4464-0.2961-1.2921 0-0.84793 0.2961-1.2921 0.29835-0.4464 0.8614-0.4464z"/>
   <path d="m120.52 245.24v0.20189h-1.8978c0.0127 0.29271 0.1294 0.61098 0.39989 0.75788 0.28328 0.15382 0.62456 0.13177 0.92944 0.0635 0.16431-0.0401 0.32273-0.10272 0.47197-0.18203v0.39032c-0.42514 0.17788-0.9085 0.25291-1.3604 0.13956-0.38307-0.0956-0.70311-0.40267-0.80935-0.78363-0.0931-0.33422-0.0831-0.69852 0.026-1.0277 0.1231-0.36848 0.44392-0.66661 0.82798-0.74124 0.36278-0.0749 0.78167-0.0309 1.0591 0.23695 0.26044 0.23918 0.35628 0.60172 0.35307 0.94453zm-0.41275-0.12113c6e-3 -0.26987-0.12125-0.5592-0.37481-0.67863-0.22499-0.10033-0.49692-0.0803-0.71521 0.0284-0.24041 0.12263-0.36491 0.39263-0.38153 0.65251 0.49052-7.5e-4 0.98103-1e-3 1.4716-2e-3z"/>
   <path d="m121.34 246.22h0.74026v-2.555l-0.80531 0.16151v-0.41275l0.80083-0.16151h0.45313v2.9678h0.74026v0.38135h-1.9292z"/>
   <path d="m124.26 246.22h0.74026v-2.555l-0.80531 0.16151v-0.41275l0.80083-0.16151h0.45313v2.9678h0.74026v0.38135h-1.9292z"/>
   <path d="m130.66 245.24v0.20189h-1.8978c0.0127 0.2927 0.12939 0.61098 0.39988 0.75788 0.28328 0.15382 0.62456 0.13177 0.92944 0.0635 0.16431-0.0401 0.32274-0.10272 0.47198-0.18203v0.39032c-0.42515 0.17788-0.9085 0.25291-1.3604 0.13956-0.38307-0.0956-0.70311-0.40268-0.80935-0.78363-0.0931-0.33422-0.0831-0.69852 0.026-1.0277 0.12309-0.36848 0.44391-0.66661 0.82797-0.74124 0.36278-0.0749 0.78167-0.0309 1.0591 0.23695 0.26045 0.23918 0.35629 0.60172 0.35308 0.94453zm-0.41275-0.12113c6e-3 -0.26987-0.12126-0.5592-0.37481-0.67863-0.225-0.10033-0.49693-0.0803-0.71521 0.0284-0.24041 0.12264-0.36491 0.39263-0.38154 0.65251 0.49052-7.5e-4 0.98104-1e-3 1.4716-2e-3z"/>
   <path d="m131.47 246.22h0.74026v-2.555l-0.80532 0.16151v-0.41275l0.80083-0.16151h0.45313v2.9678h0.74026v0.38135h-1.9292z"/>
   <path d="m134.71 246.22h1.5815v0.38135h-2.1266v-0.38135c0.42998-0.4513 0.88312-0.88053 1.3026-1.3418 0.18406-0.21354 0.37859-0.46832 0.34776-0.767-0.0175-0.30422-0.30705-0.52634-0.5989-0.5356-0.36521-0.0219-0.71545 0.12169-1.029 0.29569v-0.45761c0.44364-0.1798 0.94306-0.30426 1.4143-0.15705 0.33333 0.0963 0.62071 0.38009 0.66097 0.73352 0.0506 0.30325-0.0572 0.61059-0.24333 0.84879-0.1907 0.25786-0.43213 0.47254-0.64997 0.70668-0.21944 0.22512-0.43935 0.44978-0.65936 0.67434z"/>
  </g>
  <g fill="#0d62fc" stroke-width=".15573">
   <path d="m140.69 245.24v0.20189h-1.8978c0.0127 0.29271 0.1294 0.61098 0.39989 0.75788 0.28328 0.15382 0.62456 0.13177 0.92944 0.0635 0.16431-0.0401 0.32273-0.10272 0.47197-0.18203v0.39032c-0.42515 0.17788-0.9085 0.25291-1.3604 0.13956-0.38307-0.0956-0.70311-0.40267-0.80935-0.78363-0.0931-0.33422-0.0831-0.69852 0.026-1.0277 0.1231-0.36848 0.44392-0.66661 0.82798-0.74124 0.36278-0.0749 0.78167-0.0309 1.0591 0.23695 0.26044 0.23918 0.35628 0.60172 0.35307 0.94453zm-0.41275-0.12113c6e-3 -0.26987-0.12125-0.5592-0.37481-0.67863-0.22499-0.10033-0.49693-0.0803-0.71521 0.0284-0.24041 0.12263-0.36491 0.39263-0.38153 0.65251 0.49052-7.5e-4 0.98103-1e-3 1.4716-2e-3z"/>
   <path d="m141.81 246.22h1.5815v0.38135h-2.1266v-0.38135c0.42998-0.4513 0.88312-0.88053 1.3026-1.3418 0.18406-0.21354 0.37859-0.46833 0.34776-0.767-0.0175-0.30422-0.30706-0.52634-0.59891-0.5356-0.36521-0.0219-0.71545 0.12169-1.029 0.29569v-0.45761c0.44365-0.1798 0.94306-0.30426 1.4144-0.15705 0.33332 0.0963 0.62071 0.38009 0.66096 0.73352 0.0506 0.30325-0.0572 0.61059-0.24333 0.84879-0.1907 0.25786-0.43213 0.47254-0.64997 0.70668-0.21944 0.22512-0.43936 0.44977-0.65935 0.67434z"/>
   <path d="m145.31 243.55q-0.34994 0-0.52716 0.34546-0.17497 0.34321-0.17497 1.0341 0 0.68867 0.17497 1.0341 0.17722 0.34321 0.52716 0.34321 0.35218 0 0.52716-0.34321 0.17721-0.34546 0.17721-1.0341 0-0.69091-0.17721-1.0341-0.17498-0.34546-0.52716-0.34546zm0-0.35891q0.56305 0 0.85915 0.4464 0.29835 0.44416 0.29835 1.2921 0 0.8457-0.29835 1.2921-0.2961 0.44415-0.85915 0.44415t-0.8614-0.44415q-0.2961-0.4464-0.2961-1.2921 0-0.84793 0.2961-1.2921 0.29835-0.4464 0.8614-0.4464z"/>
   <path d="m150.82 245.24v0.20189h-1.8978c0.0127 0.29271 0.1294 0.61098 0.39989 0.75788 0.28328 0.15382 0.62456 0.13177 0.92944 0.0635 0.16431-0.0401 0.32274-0.10272 0.47198-0.18203v0.39032c-0.42515 0.17788-0.9085 0.25291-1.3604 0.13956-0.38307-0.0956-0.70311-0.40268-0.80935-0.78363-0.0931-0.33422-0.0831-0.69852 0.026-1.0277 0.12309-0.36848 0.44391-0.66661 0.82797-0.74124 0.36278-0.0749 0.78167-0.0309 1.0591 0.23695 0.26045 0.23918 0.35629 0.60172 0.35308 0.94453zm-0.41276-0.12113c6e-3 -0.26987-0.12125-0.5592-0.3748-0.67863-0.225-0.10033-0.49693-0.0803-0.71522 0.0284-0.24041 0.12263-0.3649 0.39263-0.38153 0.65251 0.49052-7.5e-4 0.98103-1e-3 1.4716-2e-3z"/>
   <path d="m151.94 246.22h1.5815v0.38135h-2.1266v-0.38135c0.42998-0.4513 0.88312-0.88053 1.3026-1.3418 0.18407-0.21354 0.3786-0.46832 0.34777-0.767-0.0175-0.30422-0.30706-0.52634-0.59891-0.5356-0.36521-0.0219-0.71544 0.12169-1.029 0.29569v-0.45761c0.44365-0.1798 0.94307-0.30426 1.4144-0.15705 0.33333 0.0963 0.6207 0.38009 0.66096 0.73352 0.0506 0.30325-0.0572 0.61059-0.24332 0.84879-0.1907 0.25787-0.43214 0.47254-0.64997 0.70668-0.21945 0.22512-0.43936 0.44978-0.65937 0.67434z"/>
   <path d="m154.56 246.22h0.74026v-2.555l-0.80532 0.16151v-0.41275l0.80083-0.16151h0.45313v2.9678h0.74026v0.38135h-1.9292z"/>
   <path d="m160.95 245.24v0.20189h-1.8978c0.0127 0.29271 0.1294 0.61098 0.39989 0.75788 0.28328 0.15382 0.62456 0.13177 0.92944 0.0635 0.16431-0.0401 0.32273-0.10272 0.47197-0.18203v0.39032c-0.42515 0.17788-0.9085 0.25291-1.3604 0.13956-0.38307-0.0956-0.70311-0.40267-0.80935-0.78363-0.0931-0.33422-0.0831-0.69852 0.026-1.0277 0.1231-0.36848 0.44392-0.66661 0.82798-0.74124 0.36278-0.0749 0.78167-0.0309 1.0591 0.23695 0.26044 0.23918 0.35628 0.60172 0.35307 0.94453zm-0.41275-0.12113c6e-3 -0.26987-0.12125-0.5592-0.37481-0.67863-0.22499-0.10033-0.49693-0.0803-0.71521 0.0284-0.24041 0.12263-0.36491 0.39263-0.38153 0.65251 0.49052-7.5e-4 0.98103-1e-3 1.4716-2e-3z"/>
   <path d="m162.08 246.22h1.5815v0.38135h-2.1266v-0.38135c0.42998-0.4513 0.88312-0.88053 1.3026-1.3418 0.18406-0.21354 0.37859-0.46833 0.34776-0.767-0.0175-0.30422-0.30706-0.52634-0.59891-0.5356-0.36521-0.0219-0.71545 0.12169-1.029 0.29569v-0.45761c0.44365-0.1798 0.94306-0.30426 1.4144-0.15705 0.33332 0.0963 0.62071 0.38009 0.66096 0.73352 0.0506 0.30325-0.0572 0.61059-0.24333 0.84879-0.1907 0.25786-0.43213 0.47254-0.64997 0.70668-0.21944 0.22512-0.43936 0.44977-0.65935 0.67434z"/>
   <path d="m165 246.22h1.5815v0.38135h-2.1266v-0.38135c0.42998-0.4513 0.88311-0.88054 1.3026-1.3418 0.18406-0.21354 0.37859-0.46833 0.34776-0.767-0.0175-0.30422-0.30706-0.52634-0.59891-0.5356-0.36521-0.0219-0.71545 0.12169-1.029 0.29569v-0.45761c0.44365-0.1798 0.94306-0.30426 1.4144-0.15705 0.33332 0.0963 0.62071 0.38009 0.66096 0.73352 0.0506 0.30325-0.0572 0.61059-0.24332 0.84879-0.1907 0.25787-0.43214 0.47255-0.64998 0.70668-0.21943 0.22512-0.43936 0.44977-0.65935 0.67434z"/>
  </g>
  <g fill="none" stroke="#f1ad06" stroke-opacity=".91475" stroke-width=".71845">
   <rect x="87.172" y="240.59" width="9.2757" height="9.2757"/>
   <rect x="117.48" y="240.59" width="9.2757" height="9.2757"/>
   <rect x="147.86" y="240.59" width="9.2757" height="9.2757"/>
  </g>
  <g fill="#d80000" stroke-width=".15573">
   <path d="m17.28 238.45v0.20189h-1.8978c0.01275 0.2927 0.1294 0.61098 0.39989 0.75788 0.28328 0.15382 0.62456 0.13177 0.92944 0.0635 0.16431-0.0401 0.32274-0.10272 0.47198-0.18203v0.39032c-0.42514 0.17789-0.9085 0.25293-1.3604 0.13957-0.38307-0.0956-0.70311-0.40268-0.80935-0.78363-0.0931-0.33422-0.08315-0.69852 0.02599-1.0277 0.1231-0.36848 0.44392-0.66661 0.82798-0.74124 0.36278-0.0749 0.78167-0.0309 1.0591 0.23695 0.26045 0.23917 0.35629 0.60176 0.35308 0.94452zm-0.41275-0.12114c0.0051-0.26971-0.12118-0.55924-0.37481-0.67862-0.22499-0.10033-0.49692-0.0803-0.71521 0.0284-0.24041 0.12263-0.36491 0.39263-0.38153 0.65251 0.49052-7.5e-4 0.98103-2e-3 1.4716-2e-3z"/>
   <path d="m18.985 236.76c-0.23738-0.0109-0.4475 0.15537-0.53792 0.36725-0.17011 0.38797-0.17042 0.82294-0.15904 1.2389 0.02138 0.33076 0.05526 0.68948 0.2692 0.95768 0.21623 0.27112 0.68838 0.25475 0.88307-0.0335 0.21319-0.30959 0.23628-0.70171 0.24837-1.066-1.9e-5 -0.39219-0.0093-0.80695-0.19909-1.1607-0.0983-0.1853-0.2919-0.3111-0.50459-0.30363zm0-0.35891c0.33871-0.0104 0.67964 0.15451 0.85915 0.4464 0.26627 0.41048 0.30269 0.92001 0.29718 1.3962-0.01337 0.44951-0.08038 0.93335-0.37538 1.292-0.28083 0.34608-0.79324 0.41652-1.1947 0.26676-0.37349-0.14307-0.58122-0.52559-0.66498-0.89699-0.10148-0.46154-0.10237-0.94414-0.02603-1.4095 0.06858-0.38554 0.24279-0.79402 0.60793-0.98331 0.15254-0.0796 0.32583-0.11191 0.49687-0.1116z"/>
   <path d="m21.908 236.76c-0.23738-0.0109-0.4475 0.15537-0.53792 0.36725-0.17011 0.38797-0.17042 0.82294-0.15904 1.2389 0.02138 0.33076 0.05526 0.68948 0.2692 0.95768 0.21623 0.27112 0.68838 0.25475 0.88306-0.0335 0.21319-0.30959 0.23628-0.70171 0.24837-1.066-1.9e-5 -0.39219-0.0093-0.80695-0.19909-1.1607-0.0983-0.1853-0.2919-0.3111-0.50459-0.30363zm0-0.35891c0.33871-0.0104 0.67964 0.15451 0.85915 0.4464 0.26627 0.41048 0.30269 0.92001 0.29718 1.3962-0.01337 0.44951-0.08038 0.93335-0.37538 1.292-0.28083 0.34608-0.79324 0.41652-1.1947 0.26676-0.37349-0.14307-0.58122-0.52559-0.66498-0.89699-0.10148-0.46154-0.10237-0.94414-0.02603-1.4095 0.06858-0.38554 0.24279-0.79402 0.60793-0.98331 0.15254-0.0796 0.32583-0.11191 0.49687-0.1116z"/>
   <path d="m27.412 238.45v0.20189h-1.8978c0.01069 0.31165 0.15104 0.65491 0.45366 0.78469 0.31482 0.13917 0.67666 0.0968 0.99774 2e-3 0.1209-0.0383 0.23795-0.0883 0.3499-0.14782v0.39032c-0.46896 0.19509-1.0145 0.27133-1.5008 0.0941-0.36704-0.14447-0.64326-0.49051-0.70212-0.88074-0.0641-0.3577-0.02912-0.74283 0.13946-1.0681 0.17255-0.3194 0.50577-0.5454 0.86846-0.57842 0.34984-0.0481 0.74102 0.0319 0.98526 0.30338 0.2254 0.23838 0.30919 0.57773 0.30616 0.89825zm-0.41275-0.12114c0.01055-0.30606-0.16827-0.64348-0.48333-0.71696-0.31523-0.0813-0.70313 0.0227-0.86919 0.32011-0.05902 0.11244-0.1461 0.3051-0.09604 0.3991 0.48276-9.4e-4 0.96628-2e-3 1.4486-2e-3z"/>
   <path d="m29.117 236.76q-0.34994 0-0.52716 0.34546-0.17497 0.34321-0.17497 1.0341 0 0.68867 0.17497 1.0341 0.17721 0.34321 0.52716 0.34321 0.35218 0 0.52716-0.34321 0.17722-0.34545 0.17722-1.0341 0-0.69091-0.17722-1.0341-0.17497-0.34546-0.52716-0.34546zm0-0.35891q0.56305 0 0.85915 0.4464 0.29835 0.44415 0.29835 1.2921 0 0.84569-0.29835 1.2921-0.2961 0.44416-0.85915 0.44416-0.56305 0-0.8614-0.44416-0.2961-0.4464-0.2961-1.2921 0-0.84794 0.2961-1.2921 0.29835-0.4464 0.8614-0.4464z"/>
   <path d="m31.15 239.43h0.74026v-2.555l-0.80532 0.16152v-0.41276l0.80083-0.16151h0.45313v2.9678h0.74026v0.38135h-1.9292z"/>
   <path d="m37.545 238.45v0.20189h-1.8978q0.02692 0.42621 0.25573 0.65053 0.23105 0.22208 0.64156 0.22208 0.23778 0 0.45986-0.0583 0.22432-0.0583 0.44416-0.17497v0.39032q-0.22208 0.0942-0.45537 0.14357-0.23329 0.0494-0.47332 0.0494-0.60118 0-0.95337-0.34994-0.34994-0.34994-0.34994-0.94664 0-0.61688 0.332-0.97804 0.33424-0.3634 0.89953-0.3634 0.50697 0 0.80083 0.32751 0.2961 0.32526 0.2961 0.88607zm-0.41275-0.12114q-0.0045-0.33872-0.19067-0.54061-0.18394-0.20189-0.48902-0.20189-0.34546 0-0.55408 0.19516-0.20638 0.19516-0.23778 0.54959z"/>
   <path d="m39.25 236.76q-0.34994 0-0.52716 0.34546-0.17497 0.34321-0.17497 1.0341 0 0.68867 0.17497 1.0341 0.17721 0.34321 0.52716 0.34321 0.35218 0 0.52716-0.34321 0.17722-0.34545 0.17722-1.0341 0-0.69091-0.17722-1.0341-0.17497-0.34546-0.52716-0.34546zm0-0.35891q0.56305 0 0.85915 0.4464 0.29835 0.44415 0.29835 1.2921 0 0.84569-0.29835 1.2921-0.2961 0.44416-0.85915 0.44416-0.56305 0-0.8614-0.44416-0.2961-0.4464-0.2961-1.2921 0-0.84794 0.2961-1.2921 0.29835-0.4464 0.8614-0.4464z"/>
   <path d="m41.594 239.43h1.5815v0.38135h-2.1266v-0.38135c0.42998-0.45131 0.88311-0.88054 1.3026-1.3418 0.18407-0.21354 0.37857-0.46833 0.34774-0.767-0.01754-0.30422-0.30705-0.52635-0.5989-0.53561-0.36521-0.0219-0.71545 0.12169-1.029 0.29569v-0.45762c0.44365-0.17978 0.94306-0.30425 1.4143-0.15704 0.33332 0.0963 0.62071 0.38009 0.66096 0.73352 0.05057 0.30324-0.05716 0.61058-0.24332 0.84878-0.19071 0.25787-0.43214 0.47254-0.64998 0.70669-0.21942 0.22512-0.43939 0.44977-0.65933 0.67435z"/>
  </g>
  <g fill="#008f08" stroke-width=".15573">
   <path d="m17.28 245.58v0.20189h-1.8978q0.02692 0.42621 0.25573 0.65053 0.23105 0.22208 0.64156 0.22208 0.23778 0 0.45986-0.0583 0.22432-0.0583 0.44416-0.17498v0.39032q-0.22208 0.0942-0.45537 0.14357-0.23329 0.0494-0.47332 0.0494-0.60118 0-0.95337-0.34994-0.34994-0.34994-0.34994-0.94664 0-0.61688 0.332-0.97804 0.33424-0.3634 0.89953-0.3634 0.50697 0 0.80083 0.32751 0.2961 0.32526 0.2961 0.88607zm-0.41275-0.12114q-0.0045-0.33872-0.19067-0.54061-0.18394-0.20189-0.48902-0.20189-0.34546 0-0.55408 0.19516-0.20638 0.19516-0.23778 0.54959z"/>
   <path d="m18.094 246.56h0.74026v-2.555l-0.80532 0.16151v-0.41275l0.80083-0.16152h0.45313v2.9678h0.74026v0.38135h-1.9292z"/>
   <path d="m21.908 243.89q-0.34994 0-0.52716 0.34546-0.17497 0.34321-0.17497 1.0341 0 0.68867 0.17497 1.0341 0.17721 0.34322 0.52716 0.34322 0.35218 0 0.52716-0.34322 0.17722-0.34545 0.17722-1.0341 0-0.69091-0.17722-1.0341-0.17497-0.34546-0.52716-0.34546zm0-0.35891q0.56305 0 0.85915 0.4464 0.29835 0.44415 0.29835 1.2921 0 0.84569-0.29835 1.2921-0.2961 0.44416-0.85915 0.44416-0.56305 0-0.8614-0.44416-0.2961-0.4464-0.2961-1.2921 0-0.84794 0.2961-1.2921 0.29835-0.4464 0.8614-0.4464z"/>
   <path d="m27.412 245.58v0.20189h-1.8978c0.01275 0.2927 0.1294 0.61098 0.39989 0.75788 0.28328 0.15382 0.62456 0.13177 0.92944 0.0635 0.16431-0.0401 0.32274-0.10272 0.47198-0.18204v0.39032c-0.42514 0.17789-0.9085 0.25293-1.3604 0.13957-0.38307-0.0956-0.70311-0.40268-0.80935-0.78363-0.0931-0.33422-0.08315-0.69852 0.02598-1.0277 0.1231-0.36848 0.44392-0.66661 0.82798-0.74124 0.36278-0.0749 0.78167-0.0309 1.0591 0.23695 0.26045 0.23918 0.35628 0.60172 0.35308 0.94453zm-0.41275-0.12114c0.0051-0.26971-0.12118-0.55924-0.37481-0.67862-0.22499-0.10033-0.49692-0.0803-0.71521 0.0284-0.24041 0.12263-0.36491 0.39263-0.38153 0.65251 0.49052-7.5e-4 0.98103-1e-3 1.4716-2e-3z"/>
   <path d="m28.227 246.56h0.74026v-2.555l-0.80532 0.16151v-0.41275l0.80083-0.16152h0.45313v2.9678h0.74026v0.38135h-1.9292z"/>
   <path d="m31.15 246.56h0.74026v-2.555l-0.80532 0.16151v-0.41275l0.80083-0.16152h0.45313v2.9678h0.74026v0.38135h-1.9292z"/>
   <path d="m37.545 245.58v0.20189h-1.8978c0.01275 0.2927 0.1294 0.61098 0.39989 0.75788 0.28328 0.15382 0.62456 0.13177 0.92944 0.0635 0.16431-0.0401 0.32274-0.10272 0.47198-0.18204v0.39032c-0.42514 0.17789-0.9085 0.25293-1.3604 0.13957-0.38307-0.0956-0.70311-0.40268-0.80935-0.78363-0.0931-0.33422-0.08315-0.69852 0.02598-1.0277 0.1231-0.36848 0.44392-0.66661 0.82798-0.74124 0.36278-0.0749 0.78167-0.0309 1.0591 0.23695 0.26045 0.23918 0.35628 0.60172 0.35308 0.94453zm-0.41275-0.12114c0.0051-0.26971-0.12118-0.55924-0.37481-0.67862-0.22499-0.10033-0.49692-0.0803-0.71521 0.0284-0.24041 0.12263-0.36491 0.39263-0.38153 0.65251 0.49052-7.5e-4 0.98103-1e-3 1.4716-2e-3z"/>
   <path d="m38.359 246.56h0.74026v-2.555l-0.80532 0.16151v-0.41275l0.80083-0.16152h0.45313v2.9678h0.74026v0.38135h-1.9292z"/>
   <path d="m41.594 246.56h1.5815v0.38135h-2.1266v-0.38135c0.42998-0.45131 0.88311-0.88054 1.3026-1.3418 0.18407-0.21354 0.37857-0.46833 0.34774-0.767-0.01755-0.30422-0.30705-0.52635-0.5989-0.53561-0.36521-0.0219-0.71545 0.12169-1.029 0.29569v-0.45761c0.44365-0.1798 0.94306-0.30426 1.4143-0.15705 0.33332 0.0963 0.62071 0.38009 0.66096 0.73352 0.05057 0.30324-0.05716 0.61058-0.24332 0.84878-0.19071 0.25787-0.43214 0.47255-0.64998 0.70669-0.21942 0.22513-0.4394 0.44977-0.65933 0.67435z"/>
  </g>
  <g fill="#0d62fc" stroke-width=".15573">
   <path d="m17.28 252.72v0.20189h-1.8978q0.02692 0.42621 0.25573 0.65053 0.23105 0.22208 0.64156 0.22208 0.23778 0 0.45986-0.0583 0.22432-0.0583 0.44416-0.17497v0.39032q-0.22208 0.0942-0.45537 0.14356-0.23329 0.0494-0.47332 0.0494-0.60118 0-0.95337-0.34994-0.34994-0.34994-0.34994-0.94664 0-0.61688 0.332-0.97804 0.33424-0.3634 0.89953-0.3634 0.50697 0 0.80083 0.32751 0.2961 0.32527 0.2961 0.88607zm-0.41275-0.12113q-0.0045-0.33873-0.19067-0.54062-0.18394-0.20189-0.48902-0.20189-0.34546 0-0.55408 0.19516-0.20638 0.19516-0.23778 0.54959z"/>
   <path d="m18.406 253.7h1.5815c-0.03776 0.12329 0.09256 0.41466-0.1018 0.38135h-2.0248c-0.0018-0.21359-0.04368-0.44367 0.17941-0.56593 0.46104-0.50764 1.0192-0.93969 1.3864-1.5248 0.25414-0.38939-0.05046-0.94401-0.51436-0.93503-0.35458-0.0706-0.80575 0.23431-1.029 0.24479 0.02215-0.19093-0.09489-0.48035 0.20021-0.48158 0.5781-0.22035 1.3893-0.25259 1.7651 0.33275 0.30396 0.51475-0.0048 1.1206-0.4036 1.4811-0.34305 0.35893-0.69215 0.71206-1.039 1.0673z"/>
   <path d="m21.908 251.03q-0.34994 0-0.52716 0.34546-0.17497 0.34321-0.17497 1.0341 0 0.68867 0.17497 1.0341 0.17721 0.34321 0.52716 0.34321 0.35218 0 0.52716-0.34321 0.17722-0.34546 0.17722-1.0341 0-0.69091-0.17722-1.0341-0.17497-0.34546-0.52716-0.34546zm0-0.35891q0.56305 0 0.85915 0.4464 0.29835 0.44416 0.29835 1.2921 0 0.8457-0.29835 1.2921-0.2961 0.44415-0.85915 0.44415-0.56305 0-0.8614-0.44415-0.2961-0.4464-0.2961-1.2921 0-0.84793 0.2961-1.2921 0.29835-0.4464 0.8614-0.4464z"/>
   <path d="m27.412 252.72v0.20189h-1.8978q0.02692 0.42621 0.25573 0.65053 0.23105 0.22208 0.64156 0.22208 0.23778 0 0.45986-0.0583 0.22432-0.0583 0.44416-0.17497v0.39032q-0.22208 0.0942-0.45537 0.14356-0.23329 0.0494-0.47332 0.0494-0.60118 0-0.95337-0.34994-0.34994-0.34994-0.34994-0.94664 0-0.61688 0.332-0.97804 0.33424-0.3634 0.89953-0.3634 0.50697 0 0.80083 0.32751 0.2961 0.32527 0.2961 0.88607zm-0.41275-0.12113q-0.0045-0.33873-0.19067-0.54062-0.18394-0.20189-0.48902-0.20189-0.34546 0-0.55408 0.19516-0.20638 0.19516-0.23778 0.54959z"/>
   <path d="m28.539 253.7h1.5815c-0.03776 0.12329 0.09256 0.41466-0.1018 0.38135h-2.0248c-0.0018-0.21359-0.04368-0.44367 0.17941-0.56593 0.46104-0.50764 1.0192-0.93969 1.3864-1.5248 0.25414-0.38939-0.05046-0.94401-0.51436-0.93503-0.35458-0.0706-0.80575 0.23431-1.029 0.24479 0.02215-0.19093-0.09489-0.48035 0.20021-0.48158 0.5781-0.22035 1.3893-0.25259 1.7651 0.33275 0.30396 0.51475-0.0048 1.1206-0.4036 1.4811-0.34305 0.35893-0.69215 0.71206-1.039 1.0673z"/>
   <path d="m31.15 253.7h0.74026v-2.555l-0.80532 0.16151v-0.41275l0.80083-0.16151h0.45313v2.9678h0.74026v0.38135h-1.9292z"/>
   <path d="m37.545 252.72v0.20189h-1.8978q0.02692 0.42621 0.25573 0.65053 0.23105 0.22208 0.64156 0.22208 0.23778 0 0.45986-0.0583 0.22432-0.0583 0.44416-0.17497v0.39032q-0.22208 0.0942-0.45537 0.14356-0.23329 0.0494-0.47332 0.0494-0.60118 0-0.95337-0.34994-0.34994-0.34994-0.34994-0.94664 0-0.61688 0.332-0.97804 0.33424-0.3634 0.89953-0.3634 0.50697 0 0.80083 0.32751 0.2961 0.32527 0.2961 0.88607zm-0.41275-0.12113q-0.0045-0.33873-0.19067-0.54062-0.18394-0.20189-0.48902-0.20189-0.34546 0-0.55408 0.19516-0.20638 0.19516-0.23778 0.54959z"/>
   <path d="m38.671 253.7h1.5815v0.38135h-2.1266v-0.38135c0.45776-0.48464 0.95156-0.93587 1.386-1.442 0.20166-0.23236 0.35792-0.57197 0.20763-0.8707-0.15006-0.30321-0.52901-0.37863-0.83486-0.31584-0.26117 0.0431-0.50632 0.15215-0.73634 0.27982v-0.45761c0.48706-0.20067 1.0621-0.32941 1.5626-0.0991 0.33901 0.14825 0.55463 0.51571 0.52241 0.8839-0.02023 0.47141-0.38962 0.81669-0.69581 1.1341-0.28784 0.29676-0.57728 0.59199-0.86649 0.8874z"/>
   <path d="m41.594 253.7h1.5815v0.38135h-2.1266v-0.38135c0.45776-0.48464 0.95156-0.93587 1.386-1.442 0.20167-0.23236 0.3579-0.57197 0.20762-0.8707-0.15006-0.30321-0.52901-0.37863-0.83486-0.31584-0.26117 0.0431-0.50632 0.15215-0.73634 0.27982v-0.45761c0.48706-0.20067 1.0621-0.32941 1.5626-0.0991 0.33901 0.14825 0.55463 0.51571 0.52241 0.8839-0.02023 0.47141-0.38962 0.81669-0.69581 1.1341-0.28783 0.29676-0.5773 0.59199-0.86648 0.8874z"/>
  </g>
  <rect x="24.327" y="234.75" width="9.2757" height="20.948" fill="none" stroke="#f1ad06" stroke-opacity=".91475" stroke-width=".71845"/>
 </g>
</svg>
