<?xml version="1.0" encoding="UTF-8"?>
<!-- Created with Inkscape (http://www.inkscape.org/) -->
<svg width="175mm" height="40mm" version="1.1" viewBox="0 0 175 40" xmlns="http://www.w3.org/2000/svg" xmlns:cc="http://creativecommons.org/ns#" xmlns:dc="http://purl.org/dc/elements/1.1/" xmlns:rdf="http://www.w3.org/1999/02/22-rdf-syntax-ns#">
 <metadata>
  <rdf:RDF>
   <cc:Work rdf:about="">
    <dc:format>image/svg+xml</dc:format>
    <dc:type rdf:resource="http://purl.org/dc/dcmitype/StillImage"/>
   </cc:Work>
  </rdf:RDF>
 </metadata>
 <g transform="translate(.0064617 -229.61)">
  <text x="20.659971" y="263.95819" fill="#858585" font-family="sans-serif" font-size="4.1712px" letter-spacing="0px" stroke-width=".24049" word-spacing="0px" style="line-height:1.25" xml:space="preserve"><tspan x="20.659971" y="263.95819" fill="#858585" stroke-width=".24049">array2D</tspan><tspan x="20.659971" y="269.17218"/></text>
  <text x="94.723145" y="263.95819" fill="#858585" font-family="sans-serif" font-size="4.1712px" letter-spacing="0px" stroke-width=".24049" word-spacing="0px" style="line-height:1.25" xml:space="preserve"><tspan x="94.723145" y="263.95819" fill="#858585" stroke-width=".24049">array1D, row major layout</tspan></text>
  <g transform="matrix(1.8917 0 0 1.8917 -40.77 -176.89)" fill="none" stroke="#858585" stroke-width=".16441">
   <path d="m53.91 232.61h4.2137v0.33094l0.86957-0.50263-0.86957-0.50267v0.33094h-4.2137z" color="#000000" color-rendering="auto" dominant-baseline="auto" fill="none" image-rendering="auto" shape-rendering="auto" solid-color="#000000" stroke="#858585" stroke-width=".16441" style="font-feature-settings:normal;font-variant-alternates:normal;font-variant-caps:normal;font-variant-ligatures:normal;font-variant-numeric:normal;font-variant-position:normal;isolation:auto;mix-blend-mode:normal;shape-padding:0;text-decoration-color:#000000;text-decoration-line:none;text-decoration-style:solid;text-indent:0;text-orientation:mixed;text-transform:none;white-space:normal"/>
  </g>
  <g stroke-width=".15573">
   <g fill="#d80000" aria-label="e00 e01 e03">
    <path d="m80.098 245.24v0.20189h-1.8978q0.02692 0.42621 0.25573 0.65053 0.23105 0.22208 0.64156 0.22208 0.23778 0 0.45986-0.0583 0.22432-0.0583 0.44416-0.17497v0.39032q-0.22208 0.0942-0.45537 0.14356-0.23329 0.0494-0.47332 0.0494-0.60118 0-0.95337-0.34994-0.34994-0.34994-0.34994-0.94664 0-0.61688 0.332-0.97804 0.33424-0.3634 0.89953-0.3634 0.50697 0 0.80083 0.32751 0.2961 0.32527 0.2961 0.88607zm-0.41275-0.12113q-0.0045-0.33873-0.19067-0.54062-0.18394-0.20189-0.48902-0.20189-0.34546 0-0.55408 0.19516-0.20638 0.19516-0.23778 0.54959z"/>
    <path d="m81.802 243.55q-0.34994 0-0.52716 0.34546-0.17497 0.34321-0.17497 1.0341 0 0.68867 0.17497 1.0341 0.17722 0.34321 0.52716 0.34321 0.35218 0 0.52716-0.34321 0.17721-0.34546 0.17721-1.0341 0-0.69091-0.17721-1.0341-0.17497-0.34546-0.52716-0.34546zm0-0.35891q0.56305 0 0.85915 0.4464 0.29835 0.44416 0.29835 1.2921 0 0.8457-0.29835 1.2921-0.2961 0.44415-0.85915 0.44415-0.56305 0-0.8614-0.44415-0.2961-0.4464-0.2961-1.2921 0-0.84793 0.2961-1.2921 0.29835-0.4464 0.8614-0.4464z"/>
    <path d="m84.725 243.55q-0.34994 0-0.52716 0.34546-0.17497 0.34321-0.17497 1.0341 0 0.68867 0.17497 1.0341 0.17721 0.34321 0.52716 0.34321 0.35219 0 0.52716-0.34321 0.17721-0.34546 0.17721-1.0341 0-0.69091-0.17721-1.0341-0.17497-0.34546-0.52716-0.34546zm0-0.35891q0.56305 0 0.85915 0.4464 0.29835 0.44416 0.29835 1.2921 0 0.8457-0.29835 1.2921-0.2961 0.44415-0.85915 0.44415-0.56305 0-0.8614-0.44415-0.2961-0.4464-0.2961-1.2921 0-0.84793 0.2961-1.2921 0.29835-0.4464 0.8614-0.4464z"/>
    <path d="m90.23 245.24v0.20189h-1.8978q0.02692 0.42621 0.25573 0.65053 0.23105 0.22208 0.64156 0.22208 0.23778 0 0.45986-0.0583 0.22432-0.0583 0.44416-0.17497v0.39032q-0.22208 0.0942-0.45537 0.14356-0.2333 0.0494-0.47332 0.0494-0.60118 0-0.95337-0.34994-0.34994-0.34994-0.34994-0.94664 0-0.61688 0.332-0.97804 0.33424-0.3634 0.89953-0.3634 0.50697 0 0.80083 0.32751 0.2961 0.32527 0.2961 0.88607zm-0.41275-0.12113q-0.0045-0.33873-0.19067-0.54062-0.18394-0.20189-0.48902-0.20189-0.34546 0-0.55408 0.19516-0.20638 0.19516-0.23778 0.54959z"/>
    <path d="m91.935 243.55q-0.34994 0-0.52716 0.34546-0.17497 0.34321-0.17497 1.0341 0 0.68867 0.17497 1.0341 0.17721 0.34321 0.52716 0.34321 0.35219 0 0.52716-0.34321 0.17721-0.34546 0.17721-1.0341 0-0.69091-0.17721-1.0341-0.17497-0.34546-0.52716-0.34546zm0-0.35891q0.56305 0 0.85915 0.4464 0.29835 0.44416 0.29835 1.2921 0 0.8457-0.29835 1.2921-0.2961 0.44415-0.85915 0.44415-0.56305 0-0.8614-0.44415-0.2961-0.4464-0.2961-1.2921 0-0.84793 0.2961-1.2921 0.29835-0.4464 0.8614-0.4464z"/>
    <path d="m93.967 246.22h0.74026v-2.555l-0.80532 0.16151v-0.41275l0.80083-0.16151h0.45313v2.9678h0.74026v0.38135h-1.9292z"/>
    <path d="m100.36 245.24v0.20189h-1.8978q0.02692 0.42621 0.25573 0.65053 0.23105 0.22208 0.64156 0.22208 0.23778 0 0.45986-0.0583 0.22432-0.0583 0.44416-0.17497v0.39032q-0.22208 0.0942-0.45537 0.14356-0.2333 0.0494-0.47332 0.0494-0.60118 0-0.95337-0.34994-0.34994-0.34994-0.34994-0.94664 0-0.61688 0.332-0.97804 0.33424-0.3634 0.89953-0.3634 0.50697 0 0.80083 0.32751 0.2961 0.32527 0.2961 0.88607zm-0.41275-0.12113q-0.0045-0.33873-0.19067-0.54062-0.18394-0.20189-0.48902-0.20189-0.34546 0-0.55408 0.19516-0.20638 0.19516-0.23778 0.54959z"/>
    <path d="m102.07 243.55q-0.34995 0-0.52716 0.34546-0.17497 0.34321-0.17497 1.0341 0 0.68867 0.17497 1.0341 0.17721 0.34321 0.52716 0.34321 0.35218 0 0.52715-0.34321 0.17722-0.34546 0.17722-1.0341 0-0.69091-0.17722-1.0341-0.17497-0.34546-0.52715-0.34546zm0-0.35891q0.56304 0 0.85915 0.4464 0.29835 0.44416 0.29835 1.2921 0 0.8457-0.29835 1.2921-0.29611 0.44415-0.85915 0.44415-0.56305 0-0.8614-0.44415-0.2961-0.4464-0.2961-1.2921 0-0.84793 0.2961-1.2921 0.29835-0.4464 0.8614-0.4464z"/>
    <path d="m105.39 244.79q0.32526 0.0695 0.50696 0.28938 0.18395 0.21983 0.18395 0.54285 0 0.49575-0.34097 0.76718t-0.96907 0.27143q-0.21086 0-0.43519-0.0426-0.22207-0.0404-0.45985-0.12337v-0.43743q0.18843 0.10992 0.41275 0.166 0.22432 0.0561 0.46883 0.0561 0.42621 0 0.64829-0.16824 0.22432-0.16825 0.22432-0.48903 0-0.2961-0.20862-0.4621-0.20637-0.16824-0.5765-0.16824h-0.39032v-0.37237h0.40826q0.33424 0 0.51145-0.13235 0.17722-0.1346 0.17722-0.38584 0-0.25797-0.18394-0.3948-0.18171-0.13908-0.52267-0.13908-0.18619 0-0.3993 0.0404-0.2131 0.0404-0.46883 0.12562v-0.40377q0.25797-0.0718 0.48229-0.10768 0.22657-0.0359 0.42621-0.0359 0.51594 0 0.81653 0.23554 0.3006 0.23329 0.3006 0.63258 0 0.27816-0.15927 0.47108-0.15927 0.19067-0.45313 0.2647z"/>
   </g>
   <g fill="#008f08" aria-label="e10 e11 e12">
    <path d="m110.39 245.24v0.20189h-1.8978q0.0269 0.42621 0.25573 0.65053 0.23105 0.22208 0.64156 0.22208 0.23778 0 0.45986-0.0583 0.22432-0.0583 0.44416-0.17497v0.39032q-0.22208 0.0942-0.45537 0.14356-0.2333 0.0494-0.47332 0.0494-0.60119 0-0.95337-0.34994-0.34994-0.34994-0.34994-0.94664 0-0.61688 0.33199-0.97804 0.33424-0.3634 0.89953-0.3634 0.50697 0 0.80083 0.32751 0.29611 0.32527 0.29611 0.88607zm-0.41275-0.12113q-4e-3 -0.33873-0.19068-0.54062-0.18394-0.20189-0.48902-0.20189-0.34546 0-0.55407 0.19516-0.20638 0.19516-0.23779 0.54959z"/>
    <path d="m111.21 246.22h0.74026v-2.555l-0.80532 0.16151v-0.41275l0.80083-0.16151h0.45313v2.9678h0.74026v0.38135h-1.9292z"/>
    <path d="m115.02 243.55q-0.34995 0-0.52716 0.34546-0.17497 0.34321-0.17497 1.0341 0 0.68867 0.17497 1.0341 0.17721 0.34321 0.52716 0.34321 0.35218 0 0.52715-0.34321 0.17722-0.34546 0.17722-1.0341 0-0.69091-0.17722-1.0341-0.17497-0.34546-0.52715-0.34546zm0-0.35891q0.56304 0 0.85915 0.4464 0.29835 0.44416 0.29835 1.2921 0 0.8457-0.29835 1.2921-0.29611 0.44415-0.85915 0.44415-0.56305 0-0.8614-0.44415-0.2961-0.4464-0.2961-1.2921 0-0.84793 0.2961-1.2921 0.29835-0.4464 0.8614-0.4464z"/>
    <path d="m120.52 245.24v0.20189h-1.8978q0.0269 0.42621 0.25573 0.65053 0.23105 0.22208 0.64156 0.22208 0.23778 0 0.45986-0.0583 0.22432-0.0583 0.44415-0.17497v0.39032q-0.22207 0.0942-0.45537 0.14356-0.23329 0.0494-0.47332 0.0494-0.60118 0-0.95337-0.34994-0.34994-0.34994-0.34994-0.94664 0-0.61688 0.332-0.97804 0.33424-0.3634 0.89953-0.3634 0.50697 0 0.80083 0.32751 0.2961 0.32527 0.2961 0.88607zm-0.41275-0.12113q-4e-3 -0.33873-0.19067-0.54062-0.18395-0.20189-0.48902-0.20189-0.34546 0-0.55408 0.19516-0.20638 0.19516-0.23778 0.54959z"/>
    <path d="m121.34 246.22h0.74026v-2.555l-0.80531 0.16151v-0.41275l0.80083-0.16151h0.45313v2.9678h0.74026v0.38135h-1.9292z"/>
    <path d="m124.26 246.22h0.74026v-2.555l-0.80531 0.16151v-0.41275l0.80083-0.16151h0.45313v2.9678h0.74026v0.38135h-1.9292z"/>
    <path d="m130.66 245.24v0.20189h-1.8978q0.0269 0.42621 0.25572 0.65053 0.23105 0.22208 0.64156 0.22208 0.23778 0 0.45986-0.0583 0.22432-0.0583 0.44416-0.17497v0.39032q-0.22208 0.0942-0.45537 0.14356-0.2333 0.0494-0.47332 0.0494-0.60119 0-0.95337-0.34994-0.34994-0.34994-0.34994-0.94664 0-0.61688 0.33199-0.97804 0.33424-0.3634 0.89953-0.3634 0.50697 0 0.80083 0.32751 0.29611 0.32527 0.29611 0.88607zm-0.41275-0.12113q-4e-3 -0.33873-0.19068-0.54062-0.18394-0.20189-0.48902-0.20189-0.34546 0-0.55407 0.19516-0.20638 0.19516-0.23779 0.54959z"/>
    <path d="m131.47 246.22h0.74026v-2.555l-0.80532 0.16151v-0.41275l0.80083-0.16151h0.45313v2.9678h0.74026v0.38135h-1.9292z"/>
    <path d="m134.71 246.22h1.5815v0.38135h-2.1266v-0.38135q0.25797-0.26694 0.70213-0.71558 0.4464-0.45089 0.5608-0.581 0.2176-0.24451 0.30284-0.41275 0.0875-0.17048 0.0875-0.33424 0-0.26694-0.18843-0.43518-0.18618-0.16824-0.48677-0.16824-0.21311 0-0.45089 0.074-0.23554 0.074-0.50472 0.22432v-0.45761q0.27367-0.10992 0.51145-0.166 0.23778-0.0561 0.43518-0.0561 0.52043 0 0.82999 0.26021 0.30957 0.26022 0.30957 0.6954 0 0.20638-0.0785 0.39256-0.0763 0.18395-0.28041 0.43519-0.0561 0.0651-0.35667 0.37686-0.30059 0.30956-0.84793 0.86812z"/>
   </g>
   <g fill="#0d62fc" aria-label="e20 e21 e22">
    <path d="m140.69 245.24v0.20189h-1.8978q0.0269 0.42621 0.25573 0.65053 0.23105 0.22208 0.64156 0.22208 0.23778 0 0.45986-0.0583 0.22432-0.0583 0.44415-0.17497v0.39032q-0.22208 0.0942-0.45537 0.14356-0.23329 0.0494-0.47332 0.0494-0.60118 0-0.95337-0.34994-0.34994-0.34994-0.34994-0.94664 0-0.61688 0.332-0.97804 0.33424-0.3634 0.89953-0.3634 0.50697 0 0.80083 0.32751 0.2961 0.32527 0.2961 0.88607zm-0.41275-0.12113q-4e-3 -0.33873-0.19067-0.54062-0.18395-0.20189-0.48903-0.20189-0.34545 0-0.55407 0.19516-0.20638 0.19516-0.23778 0.54959z"/>
    <path d="m141.81 246.22h1.5815v0.38135h-2.1266v-0.38135q0.25797-0.26694 0.70213-0.71558 0.4464-0.45089 0.56081-0.581 0.21759-0.24451 0.30283-0.41275 0.0875-0.17048 0.0875-0.33424 0-0.26694-0.18843-0.43518-0.18619-0.16824-0.48678-0.16824-0.21311 0-0.45089 0.074-0.23554 0.074-0.50472 0.22432v-0.45761q0.27367-0.10992 0.51145-0.166 0.23778-0.0561 0.43518-0.0561 0.52043 0 0.83 0.26021 0.30956 0.26022 0.30956 0.6954 0 0.20638-0.0785 0.39256-0.0763 0.18395-0.28041 0.43519-0.0561 0.0651-0.35667 0.37686-0.30059 0.30956-0.84793 0.86812z"/>
    <path d="m145.31 243.55q-0.34994 0-0.52716 0.34546-0.17497 0.34321-0.17497 1.0341 0 0.68867 0.17497 1.0341 0.17722 0.34321 0.52716 0.34321 0.35218 0 0.52716-0.34321 0.17721-0.34546 0.17721-1.0341 0-0.69091-0.17721-1.0341-0.17498-0.34546-0.52716-0.34546zm0-0.35891q0.56305 0 0.85915 0.4464 0.29835 0.44416 0.29835 1.2921 0 0.8457-0.29835 1.2921-0.2961 0.44415-0.85915 0.44415t-0.8614-0.44415q-0.2961-0.4464-0.2961-1.2921 0-0.84793 0.2961-1.2921 0.29835-0.4464 0.8614-0.4464z"/>
    <path d="m150.82 245.24v0.20189h-1.8978q0.0269 0.42621 0.25573 0.65053 0.23105 0.22208 0.64156 0.22208 0.23778 0 0.45986-0.0583 0.22432-0.0583 0.44416-0.17497v0.39032q-0.22208 0.0942-0.45538 0.14356-0.23329 0.0494-0.47331 0.0494-0.60119 0-0.95337-0.34994-0.34994-0.34994-0.34994-0.94664 0-0.61688 0.33199-0.97804 0.33424-0.3634 0.89953-0.3634 0.50697 0 0.80083 0.32751 0.29611 0.32527 0.29611 0.88607zm-0.41276-0.12113q-4e-3 -0.33873-0.19067-0.54062-0.18394-0.20189-0.48902-0.20189-0.34546 0-0.55408 0.19516-0.20637 0.19516-0.23778 0.54959z"/>
    <path d="m151.94 246.22h1.5815v0.38135h-2.1266v-0.38135q0.25797-0.26694 0.70213-0.71558 0.4464-0.45089 0.5608-0.581 0.21759-0.24451 0.30284-0.41275 0.0875-0.17048 0.0875-0.33424 0-0.26694-0.18843-0.43518-0.18619-0.16824-0.48678-0.16824-0.2131 0-0.45088 0.074-0.23554 0.074-0.50473 0.22432v-0.45761q0.27367-0.10992 0.51146-0.166 0.23778-0.0561 0.43518-0.0561 0.52043 0 0.82999 0.26021 0.30956 0.26022 0.30956 0.6954 0 0.20638-0.0785 0.39256-0.0763 0.18395-0.2804 0.43519-0.0561 0.0651-0.35667 0.37686-0.30059 0.30956-0.84794 0.86812z"/>
    <path d="m154.56 246.22h0.74026v-2.555l-0.80532 0.16151v-0.41275l0.80083-0.16151h0.45313v2.9678h0.74026v0.38135h-1.9292z"/>
    <path d="m160.95 245.24v0.20189h-1.8978q0.0269 0.42621 0.25573 0.65053 0.23105 0.22208 0.64156 0.22208 0.23778 0 0.45986-0.0583 0.22432-0.0583 0.44415-0.17497v0.39032q-0.22208 0.0942-0.45537 0.14356-0.23329 0.0494-0.47332 0.0494-0.60118 0-0.95337-0.34994-0.34994-0.34994-0.34994-0.94664 0-0.61688 0.332-0.97804 0.33424-0.3634 0.89953-0.3634 0.50697 0 0.80083 0.32751 0.2961 0.32527 0.2961 0.88607zm-0.41275-0.12113q-4e-3 -0.33873-0.19067-0.54062-0.18395-0.20189-0.48903-0.20189-0.34545 0-0.55407 0.19516-0.20638 0.19516-0.23778 0.54959z"/>
    <path d="m162.08 246.22h1.5815v0.38135h-2.1266v-0.38135q0.25797-0.26694 0.70213-0.71558 0.4464-0.45089 0.56081-0.581 0.21759-0.24451 0.30283-0.41275 0.0875-0.17048 0.0875-0.33424 0-0.26694-0.18843-0.43518-0.18619-0.16824-0.48678-0.16824-0.21311 0-0.45089 0.074-0.23554 0.074-0.50472 0.22432v-0.45761q0.27367-0.10992 0.51145-0.166 0.23778-0.0561 0.43518-0.0561 0.52043 0 0.83 0.26021 0.30956 0.26022 0.30956 0.6954 0 0.20638-0.0785 0.39256-0.0763 0.18395-0.28041 0.43519-0.0561 0.0651-0.35667 0.37686-0.30059 0.30956-0.84793 0.86812z"/>
    <path d="m165 246.22h1.5815v0.38135h-2.1266v-0.38135q0.25797-0.26694 0.70212-0.71558 0.4464-0.45089 0.56081-0.581 0.21759-0.24451 0.30283-0.41275 0.0875-0.17048 0.0875-0.33424 0-0.26694-0.18843-0.43518-0.18619-0.16824-0.48678-0.16824-0.21311 0-0.45089 0.074-0.23553 0.074-0.50472 0.22432v-0.45761q0.27367-0.10992 0.51145-0.166 0.23778-0.0561 0.43519-0.0561 0.52042 0 0.82999 0.26021 0.30956 0.26022 0.30956 0.6954 0 0.20638-0.0785 0.39256-0.0763 0.18395-0.2804 0.43519-0.0561 0.0651-0.35667 0.37686-0.3006 0.30956-0.84794 0.86812z"/>
   </g>
  </g>
  <g fill="none" stroke="#f1ad06" stroke-opacity=".91475" stroke-width=".71845">
   <rect x="87.172" y="240.59" width="9.2757" height="9.2757"/>
   <rect x="117.48" y="240.59" width="9.2757" height="9.2757"/>
   <rect x="147.86" y="240.59" width="9.2757" height="9.2757"/>
  </g>
  <g stroke-width=".15573">
   <g fill="#d80000" aria-label="e00 e01 e02">
    <path d="m17.28 238.45v0.20189h-1.8978q0.02692 0.42621 0.25573 0.65053 0.23105 0.22208 0.64156 0.22208 0.23778 0 0.45986-0.0583 0.22432-0.0583 0.44416-0.17497v0.39032q-0.22208 0.0942-0.45537 0.14357-0.23329 0.0494-0.47332 0.0494-0.60118 0-0.95337-0.34994-0.34994-0.34994-0.34994-0.94664 0-0.61688 0.332-0.97804 0.33424-0.3634 0.89953-0.3634 0.50697 0 0.80083 0.32751 0.2961 0.32526 0.2961 0.88607zm-0.41275-0.12114q-0.0045-0.33872-0.19067-0.54061-0.18394-0.20189-0.48902-0.20189-0.34546 0-0.55408 0.19516-0.20638 0.19516-0.23778 0.54959z"/>
    <path d="m18.985 236.76q-0.34994 0-0.52716 0.34546-0.17497 0.34321-0.17497 1.0341 0 0.68867 0.17497 1.0341 0.17721 0.34321 0.52716 0.34321 0.35219 0 0.52716-0.34321 0.17721-0.34545 0.17721-1.0341 0-0.69091-0.17721-1.0341-0.17497-0.34546-0.52716-0.34546zm0-0.35891q0.56305 0 0.85915 0.4464 0.29835 0.44415 0.29835 1.2921 0 0.84569-0.29835 1.2921-0.2961 0.44416-0.85915 0.44416-0.56305 0-0.8614-0.44416-0.2961-0.4464-0.2961-1.2921 0-0.84794 0.2961-1.2921 0.29835-0.4464 0.8614-0.4464z"/>
    <path d="m21.908 236.76q-0.34994 0-0.52716 0.34546-0.17497 0.34321-0.17497 1.0341 0 0.68867 0.17497 1.0341 0.17721 0.34321 0.52716 0.34321 0.35218 0 0.52716-0.34321 0.17722-0.34545 0.17722-1.0341 0-0.69091-0.17722-1.0341-0.17497-0.34546-0.52716-0.34546zm0-0.35891q0.56305 0 0.85915 0.4464 0.29835 0.44415 0.29835 1.2921 0 0.84569-0.29835 1.2921-0.2961 0.44416-0.85915 0.44416-0.56305 0-0.8614-0.44416-0.2961-0.4464-0.2961-1.2921 0-0.84794 0.2961-1.2921 0.29835-0.4464 0.8614-0.4464z"/>
    <path d="m27.412 238.45v0.20189h-1.8978q0.02692 0.42621 0.25573 0.65053 0.23105 0.22208 0.64156 0.22208 0.23778 0 0.45986-0.0583 0.22432-0.0583 0.44416-0.17497v0.39032q-0.22208 0.0942-0.45537 0.14357-0.23329 0.0494-0.47332 0.0494-0.60118 0-0.95337-0.34994-0.34994-0.34994-0.34994-0.94664 0-0.61688 0.332-0.97804 0.33424-0.3634 0.89953-0.3634 0.50697 0 0.80083 0.32751 0.2961 0.32526 0.2961 0.88607zm-0.41275-0.12114q-0.0045-0.33872-0.19067-0.54061-0.18394-0.20189-0.48902-0.20189-0.34546 0-0.55408 0.19516-0.20638 0.19516-0.23778 0.54959z"/>
    <path d="m29.117 236.76q-0.34994 0-0.52716 0.34546-0.17497 0.34321-0.17497 1.0341 0 0.68867 0.17497 1.0341 0.17721 0.34321 0.52716 0.34321 0.35218 0 0.52716-0.34321 0.17722-0.34545 0.17722-1.0341 0-0.69091-0.17722-1.0341-0.17497-0.34546-0.52716-0.34546zm0-0.35891q0.56305 0 0.85915 0.4464 0.29835 0.44415 0.29835 1.2921 0 0.84569-0.29835 1.2921-0.2961 0.44416-0.85915 0.44416-0.56305 0-0.8614-0.44416-0.2961-0.4464-0.2961-1.2921 0-0.84794 0.2961-1.2921 0.29835-0.4464 0.8614-0.4464z"/>
    <path d="m31.15 239.43h0.74026v-2.555l-0.80532 0.16152v-0.41276l0.80083-0.16151h0.45313v2.9678h0.74026v0.38135h-1.9292z"/>
    <path d="m37.545 238.45v0.20189h-1.8978q0.02692 0.42621 0.25573 0.65053 0.23105 0.22208 0.64156 0.22208 0.23778 0 0.45986-0.0583 0.22432-0.0583 0.44416-0.17497v0.39032q-0.22208 0.0942-0.45537 0.14357-0.23329 0.0494-0.47332 0.0494-0.60118 0-0.95337-0.34994-0.34994-0.34994-0.34994-0.94664 0-0.61688 0.332-0.97804 0.33424-0.3634 0.89953-0.3634 0.50697 0 0.80083 0.32751 0.2961 0.32526 0.2961 0.88607zm-0.41275-0.12114q-0.0045-0.33872-0.19067-0.54061-0.18394-0.20189-0.48902-0.20189-0.34546 0-0.55408 0.19516-0.20638 0.19516-0.23778 0.54959z"/>
    <path d="m39.25 236.76q-0.34994 0-0.52716 0.34546-0.17497 0.34321-0.17497 1.0341 0 0.68867 0.17497 1.0341 0.17721 0.34321 0.52716 0.34321 0.35218 0 0.52716-0.34321 0.17722-0.34545 0.17722-1.0341 0-0.69091-0.17722-1.0341-0.17497-0.34546-0.52716-0.34546zm0-0.35891q0.56305 0 0.85915 0.4464 0.29835 0.44415 0.29835 1.2921 0 0.84569-0.29835 1.2921-0.2961 0.44416-0.85915 0.44416-0.56305 0-0.8614-0.44416-0.2961-0.4464-0.2961-1.2921 0-0.84794 0.2961-1.2921 0.29835-0.4464 0.8614-0.4464z"/>
    <path d="m41.594 239.43h1.5815v0.38135h-2.1266v-0.38135q0.25797-0.26694 0.70213-0.71559 0.4464-0.45088 0.5608-0.58099 0.21759-0.24451 0.30284-0.41275 0.08748-0.17049 0.08748-0.33424 0-0.26694-0.18843-0.43519-0.18619-0.16824-0.48678-0.16824-0.21311 0-0.45089 0.074-0.23554 0.074-0.50472 0.22432v-0.45762q0.27367-0.10991 0.51145-0.16599 0.23778-0.0561 0.43518-0.0561 0.52043 0 0.82999 0.26021 0.30956 0.26021 0.30956 0.6954 0 0.20637-0.07851 0.39256-0.07627 0.18394-0.2804 0.43518-0.05608 0.0651-0.35667 0.37686-0.30059 0.30957-0.84794 0.86813z"/>
   </g>
   <g fill="#008f08" aria-label="e10 e11 e12">
    <path d="m17.28 245.58v0.20189h-1.8978q0.02692 0.42621 0.25573 0.65053 0.23105 0.22208 0.64156 0.22208 0.23778 0 0.45986-0.0583 0.22432-0.0583 0.44416-0.17498v0.39032q-0.22208 0.0942-0.45537 0.14357-0.23329 0.0494-0.47332 0.0494-0.60118 0-0.95337-0.34994-0.34994-0.34994-0.34994-0.94664 0-0.61688 0.332-0.97804 0.33424-0.3634 0.89953-0.3634 0.50697 0 0.80083 0.32751 0.2961 0.32526 0.2961 0.88607zm-0.41275-0.12114q-0.0045-0.33872-0.19067-0.54061-0.18394-0.20189-0.48902-0.20189-0.34546 0-0.55408 0.19516-0.20638 0.19516-0.23778 0.54959z"/>
    <path d="m18.094 246.56h0.74026v-2.555l-0.80532 0.16151v-0.41275l0.80083-0.16152h0.45313v2.9678h0.74026v0.38135h-1.9292z"/>
    <path d="m21.908 243.89q-0.34994 0-0.52716 0.34546-0.17497 0.34321-0.17497 1.0341 0 0.68867 0.17497 1.0341 0.17721 0.34322 0.52716 0.34322 0.35218 0 0.52716-0.34322 0.17722-0.34545 0.17722-1.0341 0-0.69091-0.17722-1.0341-0.17497-0.34546-0.52716-0.34546zm0-0.35891q0.56305 0 0.85915 0.4464 0.29835 0.44415 0.29835 1.2921 0 0.84569-0.29835 1.2921-0.2961 0.44416-0.85915 0.44416-0.56305 0-0.8614-0.44416-0.2961-0.4464-0.2961-1.2921 0-0.84794 0.2961-1.2921 0.29835-0.4464 0.8614-0.4464z"/>
    <path d="m27.412 245.58v0.20189h-1.8978q0.02692 0.42621 0.25573 0.65053 0.23105 0.22208 0.64156 0.22208 0.23778 0 0.45986-0.0583 0.22432-0.0583 0.44416-0.17498v0.39032q-0.22208 0.0942-0.45537 0.14357-0.23329 0.0494-0.47332 0.0494-0.60118 0-0.95337-0.34994-0.34994-0.34994-0.34994-0.94664 0-0.61688 0.332-0.97804 0.33424-0.3634 0.89953-0.3634 0.50697 0 0.80083 0.32751 0.2961 0.32526 0.2961 0.88607zm-0.41275-0.12114q-0.0045-0.33872-0.19067-0.54061-0.18394-0.20189-0.48902-0.20189-0.34546 0-0.55408 0.19516-0.20638 0.19516-0.23778 0.54959z"/>
    <path d="m28.227 246.56h0.74026v-2.555l-0.80532 0.16151v-0.41275l0.80083-0.16152h0.45313v2.9678h0.74026v0.38135h-1.9292z"/>
    <path d="m31.15 246.56h0.74026v-2.555l-0.80532 0.16151v-0.41275l0.80083-0.16152h0.45313v2.9678h0.74026v0.38135h-1.9292z"/>
    <path d="m37.545 245.58v0.20189h-1.8978q0.02692 0.42621 0.25573 0.65053 0.23105 0.22208 0.64156 0.22208 0.23778 0 0.45986-0.0583 0.22432-0.0583 0.44416-0.17498v0.39032q-0.22208 0.0942-0.45537 0.14357-0.23329 0.0494-0.47332 0.0494-0.60118 0-0.95337-0.34994-0.34994-0.34994-0.34994-0.94664 0-0.61688 0.332-0.97804 0.33424-0.3634 0.89953-0.3634 0.50697 0 0.80083 0.32751 0.2961 0.32526 0.2961 0.88607zm-0.41275-0.12114q-0.0045-0.33872-0.19067-0.54061-0.18394-0.20189-0.48902-0.20189-0.34546 0-0.55408 0.19516-0.20638 0.19516-0.23778 0.54959z"/>
    <path d="m38.359 246.56h0.74026v-2.555l-0.80532 0.16151v-0.41275l0.80083-0.16152h0.45313v2.9678h0.74026v0.38135h-1.9292z"/>
    <path d="m41.594 246.56h1.5815v0.38135h-2.1266v-0.38135q0.25797-0.26694 0.70213-0.71559 0.4464-0.45088 0.5608-0.58099 0.21759-0.24451 0.30284-0.41275 0.08748-0.17049 0.08748-0.33424 0-0.26694-0.18843-0.43518-0.18619-0.16825-0.48678-0.16825-0.21311 0-0.45089 0.074-0.23554 0.074-0.50472 0.22432v-0.45761q0.27367-0.10992 0.51145-0.166 0.23778-0.0561 0.43518-0.0561 0.52043 0 0.82999 0.26021 0.30956 0.26021 0.30956 0.6954 0 0.20637-0.07851 0.39256-0.07627 0.18394-0.2804 0.43518-0.05608 0.0651-0.35667 0.37687-0.30059 0.30956-0.84794 0.86812z"/>
   </g>
   <g fill="#0d62fc" aria-label="e20 e21 e22">
    <path d="m17.28 252.72v0.20189h-1.8978q0.02692 0.42621 0.25573 0.65053 0.23105 0.22208 0.64156 0.22208 0.23778 0 0.45986-0.0583 0.22432-0.0583 0.44416-0.17497v0.39032q-0.22208 0.0942-0.45537 0.14356-0.23329 0.0494-0.47332 0.0494-0.60118 0-0.95337-0.34994-0.34994-0.34994-0.34994-0.94664 0-0.61688 0.332-0.97804 0.33424-0.3634 0.89953-0.3634 0.50697 0 0.80083 0.32751 0.2961 0.32527 0.2961 0.88607zm-0.41275-0.12113q-0.0045-0.33873-0.19067-0.54062-0.18394-0.20189-0.48902-0.20189-0.34546 0-0.55408 0.19516-0.20638 0.19516-0.23778 0.54959z"/>
    <path d="m18.406 253.7h1.5815v0.38135h-2.1266v-0.38135q0.25797-0.26694 0.70213-0.71558 0.4464-0.45089 0.5608-0.581 0.21759-0.24451 0.30283-0.41275 0.08749-0.17048 0.08749-0.33424 0-0.26694-0.18843-0.43518-0.18619-0.16824-0.48678-0.16824-0.2131 0-0.45089 0.074-0.23554 0.074-0.50472 0.22432v-0.45761q0.27367-0.10992 0.51145-0.166 0.23778-0.0561 0.43518-0.0561 0.52043 0 0.82999 0.26021 0.30956 0.26022 0.30956 0.6954 0 0.20638-0.07851 0.39256-0.07627 0.18395-0.2804 0.43519-0.05608 0.0651-0.35667 0.37686-0.30059 0.30956-0.84794 0.86812z"/>
    <path d="m21.908 251.03q-0.34994 0-0.52716 0.34546-0.17497 0.34321-0.17497 1.0341 0 0.68867 0.17497 1.0341 0.17721 0.34321 0.52716 0.34321 0.35218 0 0.52716-0.34321 0.17722-0.34546 0.17722-1.0341 0-0.69091-0.17722-1.0341-0.17497-0.34546-0.52716-0.34546zm0-0.35891q0.56305 0 0.85915 0.4464 0.29835 0.44416 0.29835 1.2921 0 0.8457-0.29835 1.2921-0.2961 0.44415-0.85915 0.44415-0.56305 0-0.8614-0.44415-0.2961-0.4464-0.2961-1.2921 0-0.84793 0.2961-1.2921 0.29835-0.4464 0.8614-0.4464z"/>
    <path d="m27.412 252.72v0.20189h-1.8978q0.02692 0.42621 0.25573 0.65053 0.23105 0.22208 0.64156 0.22208 0.23778 0 0.45986-0.0583 0.22432-0.0583 0.44416-0.17497v0.39032q-0.22208 0.0942-0.45537 0.14356-0.23329 0.0494-0.47332 0.0494-0.60118 0-0.95337-0.34994-0.34994-0.34994-0.34994-0.94664 0-0.61688 0.332-0.97804 0.33424-0.3634 0.89953-0.3634 0.50697 0 0.80083 0.32751 0.2961 0.32527 0.2961 0.88607zm-0.41275-0.12113q-0.0045-0.33873-0.19067-0.54062-0.18394-0.20189-0.48902-0.20189-0.34546 0-0.55408 0.19516-0.20638 0.19516-0.23778 0.54959z"/>
    <path d="m28.539 253.7h1.5815v0.38135h-2.1266v-0.38135q0.25797-0.26694 0.70213-0.71558 0.4464-0.45089 0.5608-0.581 0.21759-0.24451 0.30283-0.41275 0.08749-0.17048 0.08749-0.33424 0-0.26694-0.18843-0.43518-0.18619-0.16824-0.48678-0.16824-0.21311 0-0.45089 0.074-0.23554 0.074-0.50472 0.22432v-0.45761q0.27367-0.10992 0.51145-0.166 0.23778-0.0561 0.43518-0.0561 0.52043 0 0.82999 0.26021 0.30956 0.26022 0.30956 0.6954 0 0.20638-0.07851 0.39256-0.07627 0.18395-0.2804 0.43519-0.05608 0.0651-0.35667 0.37686-0.30059 0.30956-0.84794 0.86812z"/>
    <path d="m31.15 253.7h0.74026v-2.555l-0.80532 0.16151v-0.41275l0.80083-0.16151h0.45313v2.9678h0.74026v0.38135h-1.9292z"/>
    <path d="m37.545 252.72v0.20189h-1.8978q0.02692 0.42621 0.25573 0.65053 0.23105 0.22208 0.64156 0.22208 0.23778 0 0.45986-0.0583 0.22432-0.0583 0.44416-0.17497v0.39032q-0.22208 0.0942-0.45537 0.14356-0.23329 0.0494-0.47332 0.0494-0.60118 0-0.95337-0.34994-0.34994-0.34994-0.34994-0.94664 0-0.61688 0.332-0.97804 0.33424-0.3634 0.89953-0.3634 0.50697 0 0.80083 0.32751 0.2961 0.32527 0.2961 0.88607zm-0.41275-0.12113q-0.0045-0.33873-0.19067-0.54062-0.18394-0.20189-0.48902-0.20189-0.34546 0-0.55408 0.19516-0.20638 0.19516-0.23778 0.54959z"/>
    <path d="m38.671 253.7h1.5815v0.38135h-2.1266v-0.38135q0.25797-0.26694 0.70213-0.71558 0.4464-0.45089 0.5608-0.581 0.21759-0.24451 0.30283-0.41275 0.08749-0.17048 0.08749-0.33424 0-0.26694-0.18843-0.43518-0.18619-0.16824-0.48678-0.16824-0.21311 0-0.45089 0.074-0.23554 0.074-0.50472 0.22432v-0.45761q0.27367-0.10992 0.51145-0.166 0.23778-0.0561 0.43518-0.0561 0.52043 0 0.82999 0.26021 0.30956 0.26022 0.30956 0.6954 0 0.20638-0.07851 0.39256-0.07627 0.18395-0.2804 0.43519-0.05608 0.0651-0.35667 0.37686-0.30059 0.30956-0.84794 0.86812z"/>
    <path d="m41.594 253.7h1.5815v0.38135h-2.1266v-0.38135q0.25797-0.26694 0.70213-0.71558 0.4464-0.45089 0.5608-0.581 0.21759-0.24451 0.30284-0.41275 0.08748-0.17048 0.08748-0.33424 0-0.26694-0.18843-0.43518-0.18619-0.16824-0.48678-0.16824-0.21311 0-0.45089 0.074-0.23554 0.074-0.50472 0.22432v-0.45761q0.27367-0.10992 0.51145-0.166 0.23778-0.0561 0.43518-0.0561 0.52043 0 0.82999 0.26021 0.30956 0.26022 0.30956 0.6954 0 0.20638-0.07851 0.39256-0.07627 0.18395-0.2804 0.43519-0.05608 0.0651-0.35667 0.37686-0.30059 0.30956-0.84794 0.86812z"/>
   </g>
  </g>
  <rect x="24.327" y="234.75" width="9.2757" height="20.948" fill="none" stroke="#f1ad06" stroke-opacity=".91475" stroke-width=".71845"/>
 </g>
</svg>
